solid OpenSCAD_Model
  facet normal 0 -1 0
    outer loop
      vertex 1.87442 -12.1461 0
      vertex 2 -12.1461 5
      vertex 1.87442 -12.1461 5
    endloop
  endfacet
  facet normal 0 -1 -0
    outer loop
      vertex 2 -12.1461 5
      vertex 1.87442 -12.1461 0
      vertex 2 -12.1461 0
    endloop
  endfacet
  facet normal -0.770514 -0.637423 0
    outer loop
      vertex 0.542063 -11.5191 0
      vertex 0.381967 -11.3256 5
      vertex 0.381967 -11.3256 0
    endloop
  endfacet
  facet normal -0.770514 -0.637423 0
    outer loop
      vertex 0.381967 -11.3256 5
      vertex 0.542063 -11.5191 0
      vertex 0.542063 -11.5191 5
    endloop
  endfacet
  facet normal 0 0 1
    outer loop
      vertex 4 2.00395 5
      vertex 3.87442 2.00395 5
      vertex 4 2 5
    endloop
  endfacet
  facet normal -0 0 1
    outer loop
      vertex 4 2 5
      vertex 10.1 -3.8147e-07 5
      vertex 10.15 2 5
    endloop
  endfacet
  facet normal 0 0 1
    outer loop
      vertex 2 -3.8147e-07 5
      vertex 4 2 5
      vertex 3.87442 2.00395 5
    endloop
  endfacet
  facet normal 0 0 1
    outer loop
      vertex 2 -3.8147e-07 5
      vertex 3.87442 2.00395 5
      vertex 3.62524 2.03543 5
    endloop
  endfacet
  facet normal 0 0 1
    outer loop
      vertex 2 -3.8147e-07 5
      vertex 3.62524 2.03543 5
      vertex 3.38197 2.09789 5
    endloop
  endfacet
  facet normal 0 0 1
    outer loop
      vertex 4 2 5
      vertex 2 -3.8147e-07 5
      vertex 10.1 -3.8147e-07 5
    endloop
  endfacet
  facet normal 0 0 1
    outer loop
      vertex 3.14844 2.19035 5
      vertex 2 -3.8147e-07 5
      vertex 3.38197 2.09789 5
    endloop
  endfacet
  facet normal 0 0 1
    outer loop
      vertex 2.92835 2.31135 5
      vertex 2 -3.8147e-07 5
      vertex 3.14844 2.19035 5
    endloop
  endfacet
  facet normal 0 0 1
    outer loop
      vertex 2.72515 2.45897 5
      vertex 2 -3.8147e-07 5
      vertex 2.92835 2.31135 5
    endloop
  endfacet
  facet normal 0 0 1
    outer loop
      vertex 2.54206 2.63091 5
      vertex 2 -3.8147e-07 5
      vertex 2.72515 2.45897 5
    endloop
  endfacet
  facet normal 0 0 1
    outer loop
      vertex 1.90735e-07 2 5
      vertex 2.54206 2.63091 5
      vertex 2.38197 2.82443 5
    endloop
  endfacet
  facet normal 0 0 1
    outer loop
      vertex 1.90735e-07 2 5
      vertex 2.38197 2.82443 5
      vertex 2.24739 3.03649 5
    endloop
  endfacet
  facet normal 0 0 1
    outer loop
      vertex 1.90735e-07 2 5
      vertex 2.24739 3.03649 5
      vertex 2.14045 3.26375 5
    endloop
  endfacet
  facet normal 0 0 1
    outer loop
      vertex 1.90735e-07 2 5
      vertex 2.14045 3.26375 5
      vertex 2.06283 3.50262 5
    endloop
  endfacet
  facet normal 0 0 1
    outer loop
      vertex 1.90735e-07 2 5
      vertex 2.06283 3.50262 5
      vertex 2.01577 3.74933 5
    endloop
  endfacet
  facet normal 0 0 1
    outer loop
      vertex 1.90735e-07 2 5
      vertex 2.01577 3.74933 5
      vertex 2 4 5
    endloop
  endfacet
  facet normal -0 0 1
    outer loop
      vertex 12.15 4 5
      vertex 14.15 2 5
      vertex 14.15 7.34575 5
    endloop
  endfacet
  facet normal -0 0 1
    outer loop
      vertex 12.1342 3.74933 5
      vertex 14.15 2 5
      vertex 12.15 4 5
    endloop
  endfacet
  facet normal -0 0 1
    outer loop
      vertex 12.0872 3.50262 5
      vertex 14.15 2 5
      vertex 12.1342 3.74933 5
    endloop
  endfacet
  facet normal -0 0 1
    outer loop
      vertex 12.0096 3.26375 5
      vertex 14.15 2 5
      vertex 12.0872 3.50262 5
    endloop
  endfacet
  facet normal -0 0 1
    outer loop
      vertex 11.9026 3.03649 5
      vertex 14.15 2 5
      vertex 12.0096 3.26375 5
    endloop
  endfacet
  facet normal 0 0 1
    outer loop
      vertex 12.15 4 5
      vertex 14.15 7.34575 5
      vertex 12.15 7.34575 5
    endloop
  endfacet
  facet normal -0 0 1
    outer loop
      vertex 11.768 2.82443 5
      vertex 14.15 2 5
      vertex 11.9026 3.03649 5
    endloop
  endfacet
  facet normal -0 0 1
    outer loop
      vertex 11.6079 2.63091 5
      vertex 14.15 2 5
      vertex 11.768 2.82443 5
    endloop
  endfacet
  facet normal -0 0 1
    outer loop
      vertex 11.4248 2.45897 5
      vertex 14.15 2 5
      vertex 11.6079 2.63091 5
    endloop
  endfacet
  facet normal 0 0 1
    outer loop
      vertex 14.15 2 5
      vertex 11.4248 2.45897 5
      vertex 14.15 2.84085e-06 5
    endloop
  endfacet
  facet normal -0 0 1
    outer loop
      vertex 11.2217 2.31135 5
      vertex 14.15 2.84085e-06 5
      vertex 11.4248 2.45897 5
    endloop
  endfacet
  facet normal 0 0 1
    outer loop
      vertex 10.1 -3.8147e-07 5
      vertex 14.15 2.84085e-06 5
      vertex 11.2217 2.31135 5
    endloop
  endfacet
  facet normal 0 0 1
    outer loop
      vertex 14.15 2.84085e-06 5
      vertex 10.1 -3.8147e-07 5
      vertex 14.15 -1.90735e-07 5
    endloop
  endfacet
  facet normal 0 0 1
    outer loop
      vertex 14.15 -1.90735e-07 5
      vertex 10.1 -3.8147e-07 5
      vertex 14.15 -3.8147e-07 5
    endloop
  endfacet
  facet normal 0 0 1
    outer loop
      vertex 10.1 -3.8147e-07 5
      vertex 11.2217 2.31135 5
      vertex 11.0016 2.19035 5
    endloop
  endfacet
  facet normal 0 0 1
    outer loop
      vertex 10.1 -3.8147e-07 5
      vertex 11.0016 2.19035 5
      vertex 10.768 2.09789 5
    endloop
  endfacet
  facet normal 0 0 1
    outer loop
      vertex 10.1 -3.8147e-07 5
      vertex 10.768 2.09789 5
      vertex 10.5248 2.03543 5
    endloop
  endfacet
  facet normal 0 0 1
    outer loop
      vertex 10.1 -3.8147e-07 5
      vertex 10.5248 2.03543 5
      vertex 10.2756 2.00395 5
    endloop
  endfacet
  facet normal 0 0 1
    outer loop
      vertex 14.15 -3.8147e-07 5
      vertex 10.1 -3.8147e-07 5
      vertex 14.15 -0.800001 5
    endloop
  endfacet
  facet normal 0 0 1
    outer loop
      vertex 10.15 2 5
      vertex 10.2756 2.00395 5
      vertex 10.15 2.00395 5
    endloop
  endfacet
  facet normal 0 0 1
    outer loop
      vertex 10.1 -3.8147e-07 5
      vertex 10.2756 2.00395 5
      vertex 10.15 2 5
    endloop
  endfacet
  facet normal 0 0 1
    outer loop
      vertex 14.15 -0.800001 5
      vertex 10.1 -3.8147e-07 5
      vertex 10.2 -2.1 5
    endloop
  endfacet
  facet normal 0 0 1
    outer loop
      vertex 10.2 -2.1 5
      vertex 10.1 -3.8147e-07 5
      vertex 10.1 -2.1 5
    endloop
  endfacet
  facet normal -0 0 1
    outer loop
      vertex 2 -8.1 5
      vertex 4.1 -8.2 5
      vertex 4.1 -8.1 5
    endloop
  endfacet
  facet normal 0 0 1
    outer loop
      vertex 4.1 -8.2 5
      vertex 2 -8.1 5
      vertex 2.8 -12.15 5
    endloop
  endfacet
  facet normal -0 0 1
    outer loop
      vertex 2 -12.1461 5
      vertex 2.8 -12.15 5
      vertex 2 -8.1 5
    endloop
  endfacet
  facet normal 0 0 1
    outer loop
      vertex 2.8 -12.15 5
      vertex 2 -12.1461 5
      vertex 2 -12.15 5
    endloop
  endfacet
  facet normal 0 0 1
    outer loop
      vertex 11.768 12.1756 5
      vertex 14.15 13 5
      vertex 14.1342 13.2507 5
    endloop
  endfacet
  facet normal 0 0 1
    outer loop
      vertex 11.768 12.1756 5
      vertex 14.1342 13.2507 5
      vertex 14.0872 13.4974 5
    endloop
  endfacet
  facet normal 0 0 1
    outer loop
      vertex 11.6079 12.3691 5
      vertex 14.0872 13.4974 5
      vertex 14.0096 13.7362 5
    endloop
  endfacet
  facet normal 0 0 1
    outer loop
      vertex 11.6079 12.3691 5
      vertex 14.0096 13.7362 5
      vertex 13.9026 13.9635 5
    endloop
  endfacet
  facet normal 0 0 1
    outer loop
      vertex 11.6079 12.3691 5
      vertex 13.9026 13.9635 5
      vertex 13.768 14.1756 5
    endloop
  endfacet
  facet normal 0 0 1
    outer loop
      vertex 11.6079 12.3691 5
      vertex 13.768 14.1756 5
      vertex 13.6079 14.3691 5
    endloop
  endfacet
  facet normal 0 0 1
    outer loop
      vertex 11.6079 12.3691 5
      vertex 13.6079 14.3691 5
      vertex 13.4248 14.541 5
    endloop
  endfacet
  facet normal 0 0 1
    outer loop
      vertex 11.6079 12.3691 5
      vertex 13.4248 14.541 5
      vertex 13.2217 14.6887 5
    endloop
  endfacet
  facet normal 0 0 1
    outer loop
      vertex 11.4248 12.541 5
      vertex 13.2217 14.6887 5
      vertex 13.0016 14.8097 5
    endloop
  endfacet
  facet normal 0 0 1
    outer loop
      vertex 11.4248 12.541 5
      vertex 13.0016 14.8097 5
      vertex 12.768 14.9021 5
    endloop
  endfacet
  facet normal 0 0 1
    outer loop
      vertex 11.4248 12.541 5
      vertex 12.768 14.9021 5
      vertex 12.5248 14.9646 5
    endloop
  endfacet
  facet normal 0 0 1
    outer loop
      vertex 11.4248 12.541 5
      vertex 12.5248 14.9646 5
      vertex 12.2756 14.9961 5
    endloop
  endfacet
  facet normal 0 0 1
    outer loop
      vertex 11.4248 12.541 5
      vertex 12.2756 14.9961 5
      vertex 12.15 14.9961 5
    endloop
  endfacet
  facet normal 0 0 1
    outer loop
      vertex 14.15 13 5
      vertex 12.0096 11.7362 5
      vertex 12.0872 11.4974 5
    endloop
  endfacet
  facet normal 0 0 1
    outer loop
      vertex 14.15 9.4741 5
      vertex 12.15 11 5
      vertex 12.15 9.4741 5
    endloop
  endfacet
  facet normal 0 0 1
    outer loop
      vertex 10.15 13 5
      vertex 12.15 14.9961 5
      vertex 12.15 15 5
    endloop
  endfacet
  facet normal 0 0 1
    outer loop
      vertex 14.15 9.4741 5
      vertex 12.1342 11.2507 5
      vertex 12.15 11 5
    endloop
  endfacet
  facet normal 0 0 1
    outer loop
      vertex 14.15 13 5
      vertex 12.1342 11.2507 5
      vertex 14.15 9.4741 5
    endloop
  endfacet
  facet normal 0 0 1
    outer loop
      vertex 14.15 13 5
      vertex 12.0872 11.4974 5
      vertex 12.1342 11.2507 5
    endloop
  endfacet
  facet normal 0 0 1
    outer loop
      vertex 14.15 13 5
      vertex 11.9026 11.9635 5
      vertex 12.0096 11.7362 5
    endloop
  endfacet
  facet normal 0 0 1
    outer loop
      vertex 14.15 13 5
      vertex 11.768 12.1756 5
      vertex 11.9026 11.9635 5
    endloop
  endfacet
  facet normal 0 0 1
    outer loop
      vertex 14.0872 13.4974 5
      vertex 11.6079 12.3691 5
      vertex 11.768 12.1756 5
    endloop
  endfacet
  facet normal 0 0 1
    outer loop
      vertex 13.2217 14.6887 5
      vertex 11.4248 12.541 5
      vertex 11.6079 12.3691 5
    endloop
  endfacet
  facet normal 0 0 1
    outer loop
      vertex 12.15 14.9961 5
      vertex 11.2217 12.6887 5
      vertex 11.4248 12.541 5
    endloop
  endfacet
  facet normal 0 0 1
    outer loop
      vertex 12.15 14.9961 5
      vertex 11.0016 12.8097 5
      vertex 11.2217 12.6887 5
    endloop
  endfacet
  facet normal 0 0 1
    outer loop
      vertex 12.15 14.9961 5
      vertex 10.768 12.9021 5
      vertex 11.0016 12.8097 5
    endloop
  endfacet
  facet normal 0 0 1
    outer loop
      vertex 12.15 14.9961 5
      vertex 10.5248 12.9646 5
      vertex 10.768 12.9021 5
    endloop
  endfacet
  facet normal 0 0 1
    outer loop
      vertex 12.15 14.9961 5
      vertex 10.2756 12.9961 5
      vertex 10.5248 12.9646 5
    endloop
  endfacet
  facet normal 0 0 1
    outer loop
      vertex 12.15 14.9961 5
      vertex 10.15 13 5
      vertex 10.2756 12.9961 5
    endloop
  endfacet
  facet normal 0 0 1
    outer loop
      vertex 12.15 15 5
      vertex 4 13 5
      vertex 10.15 13 5
    endloop
  endfacet
  facet normal 0 0 1
    outer loop
      vertex 4 13 5
      vertex 3.87442 12.9961 5
      vertex 4 12.9961 5
    endloop
  endfacet
  facet normal -0 0 1
    outer loop
      vertex 2 15 5
      vertex 4 13 5
      vertex 12.15 15 5
    endloop
  endfacet
  facet normal -0 0 1
    outer loop
      vertex 2 14.9961 5
      vertex 4 13 5
      vertex 2 15 5
    endloop
  endfacet
  facet normal 0 0 1
    outer loop
      vertex 4 13 5
      vertex 2 14.9961 5
      vertex 3.87442 12.9961 5
    endloop
  endfacet
  facet normal 0 0 1
    outer loop
      vertex 3.87442 12.9961 5
      vertex 2 14.9961 5
      vertex 3.62524 12.9646 5
    endloop
  endfacet
  facet normal 0 0 1
    outer loop
      vertex 3.62524 12.9646 5
      vertex 2 14.9961 5
      vertex 3.38197 12.9021 5
    endloop
  endfacet
  facet normal 0 0 1
    outer loop
      vertex 3.38197 12.9021 5
      vertex 2 14.9961 5
      vertex 3.14844 12.8097 5
    endloop
  endfacet
  facet normal 0 0 1
    outer loop
      vertex 3.14844 12.8097 5
      vertex 2 14.9961 5
      vertex 2.92835 12.6887 5
    endloop
  endfacet
  facet normal 0 0 1
    outer loop
      vertex 2.92835 12.6887 5
      vertex 2 14.9961 5
      vertex 2.72515 12.541 5
    endloop
  endfacet
  facet normal -0 0 1
    outer loop
      vertex 1.87442 14.9961 5
      vertex 2.72515 12.541 5
      vertex 2 14.9961 5
    endloop
  endfacet
  facet normal -0 0 1
    outer loop
      vertex 1.62524 14.9646 5
      vertex 2.72515 12.541 5
      vertex 1.87442 14.9961 5
    endloop
  endfacet
  facet normal -0 0 1
    outer loop
      vertex 1.14844 14.8097 5
      vertex 2.72515 12.541 5
      vertex 1.38197 14.9021 5
    endloop
  endfacet
  facet normal -0 0 1
    outer loop
      vertex 0.928347 14.6887 5
      vertex 2.72515 12.541 5
      vertex 1.14844 14.8097 5
    endloop
  endfacet
  facet normal 0 0 1
    outer loop
      vertex 2.72515 12.541 5
      vertex 0.928347 14.6887 5
      vertex 2.54206 12.3691 5
    endloop
  endfacet
  facet normal -0 0 1
    outer loop
      vertex 0.725152 14.541 5
      vertex 2.54206 12.3691 5
      vertex 0.928347 14.6887 5
    endloop
  endfacet
  facet normal -0 0 1
    outer loop
      vertex 0.542063 14.3691 5
      vertex 2.54206 12.3691 5
      vertex 0.725152 14.541 5
    endloop
  endfacet
  facet normal 0 0 1
    outer loop
      vertex 2.01577 11.2507 5
      vertex 1.90735e-07 13 5
      vertex 2 11 5
    endloop
  endfacet
  facet normal 0 0 1
    outer loop
      vertex 2 11 5
      vertex 1.90735e-07 13 5
      vertex 2 4 5
    endloop
  endfacet
  facet normal 0 0 1
    outer loop
      vertex 1.90735e-07 -1.90735e-07 5
      vertex 2 -8.1 5
      vertex 2 -3.8147e-07 5
    endloop
  endfacet
  facet normal -0 0 1
    outer loop
      vertex 1.38197 14.9021 5
      vertex 2.72515 12.541 5
      vertex 1.62524 14.9646 5
    endloop
  endfacet
  facet normal 0 0 1
    outer loop
      vertex 1.90735e-07 2 5
      vertex 2 4 5
      vertex 1.90735e-07 13 5
    endloop
  endfacet
  facet normal -0 -0 1
    outer loop
      vertex 2.02735e-07 0 5
      vertex 2 -3.8147e-07 5
      vertex 1.90735e-07 2 5
    endloop
  endfacet
  facet normal -0 0 1
    outer loop
      vertex 0.381967 14.1756 5
      vertex 2.54206 12.3691 5
      vertex 0.542063 14.3691 5
    endloop
  endfacet
  facet normal -0 0 1
    outer loop
      vertex 1.90735e-07 -1.90735e-07 5
      vertex 2 -3.8147e-07 5
      vertex 2.02735e-07 0 5
    endloop
  endfacet
  facet normal -0 0 1
    outer loop
      vertex 0.247387 13.9635 5
      vertex 2.54206 12.3691 5
      vertex 0.381967 14.1756 5
    endloop
  endfacet
  facet normal 0 0 1
    outer loop
      vertex 2 -8.1 5
      vertex 1.90735e-07 -1.90735e-07 5
      vertex 1.90735e-07 -10.15 5
    endloop
  endfacet
  facet normal -0 0 1
    outer loop
      vertex 0.140448 13.7362 5
      vertex 2.54206 12.3691 5
      vertex 0.247387 13.9635 5
    endloop
  endfacet
  facet normal 0 0 1
    outer loop
      vertex 2 -8.1 5
      vertex 1.90735e-07 -10.15 5
      vertex 2 -12.1461 5
    endloop
  endfacet
  facet normal -0 0 1
    outer loop
      vertex 0.062834 13.4974 5
      vertex 2.54206 12.3691 5
      vertex 0.140448 13.7362 5
    endloop
  endfacet
  facet normal -0 -0 1
    outer loop
      vertex 1.62524 -12.1146 5
      vertex 2 -12.1461 5
      vertex 1.90735e-07 -10.15 5
    endloop
  endfacet
  facet normal 0 0 1
    outer loop
      vertex 2.54206 12.3691 5
      vertex 0.062834 13.4974 5
      vertex 2.38197 12.1756 5
    endloop
  endfacet
  facet normal 0 0 1
    outer loop
      vertex 2 -12.1461 5
      vertex 1.62524 -12.1146 5
      vertex 1.87442 -12.1461 5
    endloop
  endfacet
  facet normal -0 0 1
    outer loop
      vertex 0.0157711 13.2507 5
      vertex 2.38197 12.1756 5
      vertex 0.062834 13.4974 5
    endloop
  endfacet
  facet normal 0 0 1
    outer loop
      vertex 1.62524 -12.1146 5
      vertex 1.90735e-07 -10.15 5
      vertex 1.38197 -12.0521 5
    endloop
  endfacet
  facet normal -0 0 1
    outer loop
      vertex 1.90735e-07 13 5
      vertex 2.38197 12.1756 5
      vertex 0.0157711 13.2507 5
    endloop
  endfacet
  facet normal 0 0 1
    outer loop
      vertex 1.14844 -11.9597 5
      vertex 1.90735e-07 -10.15 5
      vertex 0.928347 -11.8387 5
    endloop
  endfacet
  facet normal 0 0 1
    outer loop
      vertex 2.38197 12.1756 5
      vertex 1.90735e-07 13 5
      vertex 2.24739 11.9635 5
    endloop
  endfacet
  facet normal 0 0 1
    outer loop
      vertex 0.928347 -11.8387 5
      vertex 1.90735e-07 -10.15 5
      vertex 0.725152 -11.691 5
    endloop
  endfacet
  facet normal 0 0 1
    outer loop
      vertex 2.24739 11.9635 5
      vertex 1.90735e-07 13 5
      vertex 2.14045 11.7362 5
    endloop
  endfacet
  facet normal 0 0 1
    outer loop
      vertex 0.725152 -11.691 5
      vertex 1.90735e-07 -10.15 5
      vertex 0.542063 -11.5191 5
    endloop
  endfacet
  facet normal 0 0 1
    outer loop
      vertex 2.14045 11.7362 5
      vertex 1.90735e-07 13 5
      vertex 2.06283 11.4974 5
    endloop
  endfacet
  facet normal 0 0 1
    outer loop
      vertex 0.542063 -11.5191 5
      vertex 1.90735e-07 -10.15 5
      vertex 0.381967 -11.3256 5
    endloop
  endfacet
  facet normal 0 0 1
    outer loop
      vertex 2.06283 11.4974 5
      vertex 1.90735e-07 13 5
      vertex 2.01577 11.2507 5
    endloop
  endfacet
  facet normal 0 0 1
    outer loop
      vertex 0.381967 -11.3256 5
      vertex 1.90735e-07 -10.15 5
      vertex 0.247387 -11.1135 5
    endloop
  endfacet
  facet normal 0 0 1
    outer loop
      vertex 0.247387 -11.1135 5
      vertex 1.90735e-07 -10.15 5
      vertex 0.140448 -10.8862 5
    endloop
  endfacet
  facet normal 0 0 1
    outer loop
      vertex 2.54206 2.63091 5
      vertex 1.90735e-07 2 5
      vertex 2 -3.8147e-07 5
    endloop
  endfacet
  facet normal 0 0 1
    outer loop
      vertex 1.38197 -12.0521 5
      vertex 1.90735e-07 -10.15 5
      vertex 1.14844 -11.9597 5
    endloop
  endfacet
  facet normal -0 0 1
    outer loop
      vertex 0 2 5
      vertex 2.02735e-07 0 5
      vertex 1.90735e-07 2 5
    endloop
  endfacet
  facet normal 0 0 1
    outer loop
      vertex 2.02735e-07 0 5
      vertex 0 2 5
      vertex 0 0 5
    endloop
  endfacet
  facet normal 0 0 1
    outer loop
      vertex 10.2756 12.9961 5
      vertex 10.15 13 5
      vertex 10.15 12.9961 5
    endloop
  endfacet
  facet normal 0 0 1
    outer loop
      vertex 0.140448 -10.8862 5
      vertex 1.90735e-07 -10.15 5
      vertex 0.062834 -10.6474 5
    endloop
  endfacet
  facet normal 0 0 1
    outer loop
      vertex 0.062834 -10.6474 5
      vertex 1.90735e-07 -10.15 5
      vertex 0.0157711 -10.4007 5
    endloop
  endfacet
  facet normal 0 0 -1
    outer loop
      vertex 2 -8.1 0
      vertex 4.1 -8.2 0
      vertex 2.8 -12.15 0
    endloop
  endfacet
  facet normal 0 0 -1
    outer loop
      vertex 2 -12.1461 0
      vertex 2.8 -12.15 0
      vertex 2 -12.15 0
    endloop
  endfacet
  facet normal 0 0 -1
    outer loop
      vertex 2 -8.1 0
      vertex 2.8 -12.15 0
      vertex 2 -12.1461 0
    endloop
  endfacet
  facet normal 0 0 -1
    outer loop
      vertex 4.1 -8.2 0
      vertex 2 -8.1 0
      vertex 4.1 -8.1 0
    endloop
  endfacet
  facet normal 0 0 -1
    outer loop
      vertex 1.90735e-07 -10.15 0
      vertex 2 -8.1 0
      vertex 2 -12.1461 0
    endloop
  endfacet
  facet normal 0 0 -1
    outer loop
      vertex 1.62524 -12.1146 0
      vertex 2 -12.1461 0
      vertex 1.87442 -12.1461 0
    endloop
  endfacet
  facet normal 0 0 -1
    outer loop
      vertex 4 12.9961 0
      vertex 3.87442 12.9961 0
      vertex 4 13 0
    endloop
  endfacet
  facet normal 0 0 -1
    outer loop
      vertex 12.15 11 0
      vertex 14.15 13 0
      vertex 14.15 7.65425 0
    endloop
  endfacet
  facet normal 0 0 -1
    outer loop
      vertex 12.1342 11.2507 0
      vertex 14.15 13 0
      vertex 12.15 11 0
    endloop
  endfacet
  facet normal 0 0 -1
    outer loop
      vertex 12.0872 11.4974 0
      vertex 14.15 13 0
      vertex 12.1342 11.2507 0
    endloop
  endfacet
  facet normal 0 0 -1
    outer loop
      vertex 12.0096 11.7362 0
      vertex 14.15 13 0
      vertex 12.0872 11.4974 0
    endloop
  endfacet
  facet normal 0 0 -1
    outer loop
      vertex 11.9026 11.9635 0
      vertex 14.15 13 0
      vertex 12.0096 11.7362 0
    endloop
  endfacet
  facet normal 0 0 -1
    outer loop
      vertex 11.768 12.1756 0
      vertex 14.15 13 0
      vertex 11.9026 11.9635 0
    endloop
  endfacet
  facet normal -0 0 -1
    outer loop
      vertex 14.15 13 0
      vertex 11.768 12.1756 0
      vertex 14.1342 13.2507 0
    endloop
  endfacet
  facet normal 0 0 -1
    outer loop
      vertex 11.6079 12.3691 0
      vertex 14.0872 13.4974 0
      vertex 11.768 12.1756 0
    endloop
  endfacet
  facet normal -0 0 -1
    outer loop
      vertex 14.0872 13.4974 0
      vertex 11.6079 12.3691 0
      vertex 14.0096 13.7362 0
    endloop
  endfacet
  facet normal -0 0 -1
    outer loop
      vertex 14.0096 13.7362 0
      vertex 11.6079 12.3691 0
      vertex 13.9026 13.9635 0
    endloop
  endfacet
  facet normal -0 0 -1
    outer loop
      vertex 13.9026 13.9635 0
      vertex 11.6079 12.3691 0
      vertex 13.768 14.1756 0
    endloop
  endfacet
  facet normal -0 0 -1
    outer loop
      vertex 13.768 14.1756 0
      vertex 11.6079 12.3691 0
      vertex 13.6079 14.3691 0
    endloop
  endfacet
  facet normal 0 0 -1
    outer loop
      vertex 12.15 11 0
      vertex 14.15 7.65425 0
      vertex 12.15 7.65425 0
    endloop
  endfacet
  facet normal -0 0 -1
    outer loop
      vertex 14.1342 13.2507 0
      vertex 11.768 12.1756 0
      vertex 14.0872 13.4974 0
    endloop
  endfacet
  facet normal -0 0 -1
    outer loop
      vertex 13.6079 14.3691 0
      vertex 11.6079 12.3691 0
      vertex 13.4248 14.541 0
    endloop
  endfacet
  facet normal -0 0 -1
    outer loop
      vertex 13.4248 14.541 0
      vertex 11.6079 12.3691 0
      vertex 13.2217 14.6887 0
    endloop
  endfacet
  facet normal 0 0 -1
    outer loop
      vertex 11.4248 12.541 0
      vertex 13.2217 14.6887 0
      vertex 11.6079 12.3691 0
    endloop
  endfacet
  facet normal -0 0 -1
    outer loop
      vertex 13.2217 14.6887 0
      vertex 11.4248 12.541 0
      vertex 13.0016 14.8097 0
    endloop
  endfacet
  facet normal -0 0 -1
    outer loop
      vertex 13.0016 14.8097 0
      vertex 11.4248 12.541 0
      vertex 12.768 14.9021 0
    endloop
  endfacet
  facet normal -0 0 -1
    outer loop
      vertex 12.768 14.9021 0
      vertex 11.4248 12.541 0
      vertex 12.5248 14.9646 0
    endloop
  endfacet
  facet normal -0 0 -1
    outer loop
      vertex 12.5248 14.9646 0
      vertex 11.4248 12.541 0
      vertex 12.2756 14.9961 0
    endloop
  endfacet
  facet normal -0 0 -1
    outer loop
      vertex 12.2756 14.9961 0
      vertex 11.4248 12.541 0
      vertex 12.15 14.9961 0
    endloop
  endfacet
  facet normal 0 0 -1
    outer loop
      vertex 11.2217 12.6887 0
      vertex 12.15 14.9961 0
      vertex 11.4248 12.541 0
    endloop
  endfacet
  facet normal 0 0 -1
    outer loop
      vertex 11.0016 12.8097 0
      vertex 12.15 14.9961 0
      vertex 11.2217 12.6887 0
    endloop
  endfacet
  facet normal 0 0 -1
    outer loop
      vertex 10.768 12.9021 0
      vertex 12.15 14.9961 0
      vertex 11.0016 12.8097 0
    endloop
  endfacet
  facet normal 0 0 -1
    outer loop
      vertex 10.5248 12.9646 0
      vertex 12.15 14.9961 0
      vertex 10.768 12.9021 0
    endloop
  endfacet
  facet normal 0 0 -1
    outer loop
      vertex 10.2756 12.9961 0
      vertex 12.15 14.9961 0
      vertex 10.5248 12.9646 0
    endloop
  endfacet
  facet normal 0 0 -1
    outer loop
      vertex 10.15 13 0
      vertex 12.15 14.9961 0
      vertex 10.2756 12.9961 0
    endloop
  endfacet
  facet normal 0 0 -1
    outer loop
      vertex 10.15 13 0
      vertex 10.2756 12.9961 0
      vertex 10.15 12.9961 0
    endloop
  endfacet
  facet normal -0 0 -1
    outer loop
      vertex 12.15 14.9961 0
      vertex 10.15 13 0
      vertex 12.15 15 0
    endloop
  endfacet
  facet normal 0 0 -1
    outer loop
      vertex 4 13 0
      vertex 12.15 15 0
      vertex 10.15 13 0
    endloop
  endfacet
  facet normal 0 0 -1
    outer loop
      vertex 2 14.9961 0
      vertex 4 13 0
      vertex 3.87442 12.9961 0
    endloop
  endfacet
  facet normal 0 0 -1
    outer loop
      vertex 2 14.9961 0
      vertex 3.87442 12.9961 0
      vertex 3.62524 12.9646 0
    endloop
  endfacet
  facet normal 0 0 -1
    outer loop
      vertex 1.90735e-07 13 0
      vertex 2.01577 11.2507 0
      vertex 2 11 0
    endloop
  endfacet
  facet normal 0 0 -1
    outer loop
      vertex 1.62524 14.9646 0
      vertex 2.06283 11.4974 0
      vertex 2.01577 11.2507 0
    endloop
  endfacet
  facet normal 0 0 -1
    outer loop
      vertex 1.62524 14.9646 0
      vertex 2.14045 11.7362 0
      vertex 2.06283 11.4974 0
    endloop
  endfacet
  facet normal 0 0 -1
    outer loop
      vertex 1.62524 14.9646 0
      vertex 2.24739 11.9635 0
      vertex 2.14045 11.7362 0
    endloop
  endfacet
  facet normal 0 0 -1
    outer loop
      vertex 1.62524 14.9646 0
      vertex 2.38197 12.1756 0
      vertex 2.24739 11.9635 0
    endloop
  endfacet
  facet normal 0 0 -1
    outer loop
      vertex 1.62524 14.9646 0
      vertex 2.54206 12.3691 0
      vertex 2.38197 12.1756 0
    endloop
  endfacet
  facet normal 0 0 -1
    outer loop
      vertex 1.62524 14.9646 0
      vertex 2.72515 12.541 0
      vertex 2.54206 12.3691 0
    endloop
  endfacet
  facet normal 0 0 -1
    outer loop
      vertex 2 14.9961 0
      vertex 2.92835 12.6887 0
      vertex 2.72515 12.541 0
    endloop
  endfacet
  facet normal 0 0 -1
    outer loop
      vertex 2 14.9961 0
      vertex 3.14844 12.8097 0
      vertex 2.92835 12.6887 0
    endloop
  endfacet
  facet normal 0 0 -1
    outer loop
      vertex 2 14.9961 0
      vertex 3.38197 12.9021 0
      vertex 3.14844 12.8097 0
    endloop
  endfacet
  facet normal 0 0 -1
    outer loop
      vertex 2 14.9961 0
      vertex 3.62524 12.9646 0
      vertex 3.38197 12.9021 0
    endloop
  endfacet
  facet normal 0 0 -1
    outer loop
      vertex 4 13 0
      vertex 2 14.9961 0
      vertex 2 15 0
    endloop
  endfacet
  facet normal 0 0 -1
    outer loop
      vertex 4 13 0
      vertex 2 15 0
      vertex 12.15 15 0
    endloop
  endfacet
  facet normal 0 0 -1
    outer loop
      vertex 10.1 -3.8147e-07 0
      vertex 10.2 -2.1 0
      vertex 10.1 -2.1 0
    endloop
  endfacet
  facet normal 0 0 -1
    outer loop
      vertex 10.2 -2.1 0
      vertex 10.1 -3.8147e-07 0
      vertex 10.15 2 0
    endloop
  endfacet
  facet normal 0 0 -1
    outer loop
      vertex 10.1 -3.8147e-07 0
      vertex 4 2 0
      vertex 10.15 2 0
    endloop
  endfacet
  facet normal 0 0 -1
    outer loop
      vertex 4 2 0
      vertex 3.87442 2.00395 0
      vertex 4 2.00395 0
    endloop
  endfacet
  facet normal 0 0 -1
    outer loop
      vertex 2 -3.8147e-07 0
      vertex 4 2 0
      vertex 10.1 -3.8147e-07 0
    endloop
  endfacet
  facet normal -0 0 -1
    outer loop
      vertex 4 2 0
      vertex 2 -3.8147e-07 0
      vertex 3.87442 2.00395 0
    endloop
  endfacet
  facet normal -0 0 -1
    outer loop
      vertex 3.87442 2.00395 0
      vertex 2 -3.8147e-07 0
      vertex 3.62524 2.03543 0
    endloop
  endfacet
  facet normal 0 0 -1
    outer loop
      vertex 1.90735e-07 13 0
      vertex 2 11 0
      vertex 2 4 0
    endloop
  endfacet
  facet normal -0 0 -1
    outer loop
      vertex 3.62524 2.03543 0
      vertex 2 -3.8147e-07 0
      vertex 3.38197 2.09789 0
    endloop
  endfacet
  facet normal 0 0 -1
    outer loop
      vertex 2 -3.8147e-07 0
      vertex 3.14844 2.19035 0
      vertex 3.38197 2.09789 0
    endloop
  endfacet
  facet normal 0 0 -1
    outer loop
      vertex 2 -3.8147e-07 0
      vertex 2.92835 2.31135 0
      vertex 3.14844 2.19035 0
    endloop
  endfacet
  facet normal 0 0 -1
    outer loop
      vertex 2 -3.8147e-07 0
      vertex 2.72515 2.45897 0
      vertex 2.92835 2.31135 0
    endloop
  endfacet
  facet normal 0 0 -1
    outer loop
      vertex 2 -3.8147e-07 0
      vertex 2.54206 2.63091 0
      vertex 2.72515 2.45897 0
    endloop
  endfacet
  facet normal 0 0 -1
    outer loop
      vertex 1.90735e-07 2 0
      vertex 2.54206 2.63091 0
      vertex 2 -3.8147e-07 0
    endloop
  endfacet
  facet normal -0 0 -1
    outer loop
      vertex 2.54206 2.63091 0
      vertex 1.90735e-07 2 0
      vertex 2.38197 2.82443 0
    endloop
  endfacet
  facet normal -0 0 -1
    outer loop
      vertex 2.38197 2.82443 0
      vertex 1.90735e-07 2 0
      vertex 2.24739 3.03649 0
    endloop
  endfacet
  facet normal -0 0 -1
    outer loop
      vertex 2.24739 3.03649 0
      vertex 1.90735e-07 2 0
      vertex 2.14045 3.26375 0
    endloop
  endfacet
  facet normal -0 0 -1
    outer loop
      vertex 2.14045 3.26375 0
      vertex 1.90735e-07 2 0
      vertex 2.06283 3.50262 0
    endloop
  endfacet
  facet normal -0 0 -1
    outer loop
      vertex 2.06283 3.50262 0
      vertex 1.90735e-07 2 0
      vertex 2.01577 3.74933 0
    endloop
  endfacet
  facet normal -0 0 -1
    outer loop
      vertex 2.01577 3.74933 0
      vertex 1.90735e-07 2 0
      vertex 2 4 0
    endloop
  endfacet
  facet normal 0 0 -1
    outer loop
      vertex 1.90735e-07 -1.90735e-07 0
      vertex 2 -8.1 0
      vertex 1.90735e-07 -10.15 0
    endloop
  endfacet
  facet normal 0 0 -1
    outer loop
      vertex 1.90735e-07 2 0
      vertex 2 -3.8147e-07 0
      vertex 2.02735e-07 0 0
    endloop
  endfacet
  facet normal 0 0 -1
    outer loop
      vertex 2 -12.1461 0
      vertex 1.62524 -12.1146 0
      vertex 1.90735e-07 -10.15 0
    endloop
  endfacet
  facet normal 0 0 -1
    outer loop
      vertex 1.90735e-07 13 0
      vertex 2 4 0
      vertex 1.90735e-07 2 0
    endloop
  endfacet
  facet normal 0 0 -1
    outer loop
      vertex 1.90735e-07 -10.15 0
      vertex 1.62524 -12.1146 0
      vertex 1.38197 -12.0521 0
    endloop
  endfacet
  facet normal 0 -0 -1
    outer loop
      vertex 0.0157711 13.2507 0
      vertex 2.01577 11.2507 0
      vertex 1.90735e-07 13 0
    endloop
  endfacet
  facet normal 0 0 -1
    outer loop
      vertex 1.90735e-07 -10.15 0
      vertex 1.38197 -12.0521 0
      vertex 1.14844 -11.9597 0
    endloop
  endfacet
  facet normal 0 -0 -1
    outer loop
      vertex 1.87442 14.9961 0
      vertex 2.72515 12.541 0
      vertex 1.62524 14.9646 0
    endloop
  endfacet
  facet normal 0 0 -1
    outer loop
      vertex 1.90735e-07 -10.15 0
      vertex 1.14844 -11.9597 0
      vertex 0.928347 -11.8387 0
    endloop
  endfacet
  facet normal 0 0 -1
    outer loop
      vertex 2.72515 12.541 0
      vertex 1.87442 14.9961 0
      vertex 2 14.9961 0
    endloop
  endfacet
  facet normal 0 0 -1
    outer loop
      vertex 1.90735e-07 -10.15 0
      vertex 0.928347 -11.8387 0
      vertex 0.725152 -11.691 0
    endloop
  endfacet
  facet normal 0 0 -1
    outer loop
      vertex 2.01577 11.2507 0
      vertex 1.38197 14.9021 0
      vertex 1.62524 14.9646 0
    endloop
  endfacet
  facet normal 0 0 -1
    outer loop
      vertex 1.90735e-07 -10.15 0
      vertex 0.725152 -11.691 0
      vertex 0.542063 -11.5191 0
    endloop
  endfacet
  facet normal 0 0 -1
    outer loop
      vertex 2.01577 11.2507 0
      vertex 1.14844 14.8097 0
      vertex 1.38197 14.9021 0
    endloop
  endfacet
  facet normal 0 0 -1
    outer loop
      vertex 1.90735e-07 -10.15 0
      vertex 0.542063 -11.5191 0
      vertex 0.381967 -11.3256 0
    endloop
  endfacet
  facet normal 0 0 -1
    outer loop
      vertex 2.01577 11.2507 0
      vertex 0.928347 14.6887 0
      vertex 1.14844 14.8097 0
    endloop
  endfacet
  facet normal 0 0 -1
    outer loop
      vertex 1.90735e-07 -10.15 0
      vertex 0.381967 -11.3256 0
      vertex 0.247387 -11.1135 0
    endloop
  endfacet
  facet normal 0 0 -1
    outer loop
      vertex 2.01577 11.2507 0
      vertex 0.725152 14.541 0
      vertex 0.928347 14.6887 0
    endloop
  endfacet
  facet normal 0 0 -1
    outer loop
      vertex 1.90735e-07 -10.15 0
      vertex 0.247387 -11.1135 0
      vertex 0.140448 -10.8862 0
    endloop
  endfacet
  facet normal 0 0 -1
    outer loop
      vertex 2.01577 11.2507 0
      vertex 0.542063 14.3691 0
      vertex 0.725152 14.541 0
    endloop
  endfacet
  facet normal 0 0 -1
    outer loop
      vertex 1.90735e-07 -10.15 0
      vertex 0.140448 -10.8862 0
      vertex 0.062834 -10.6474 0
    endloop
  endfacet
  facet normal 0 0 -1
    outer loop
      vertex 2.01577 11.2507 0
      vertex 0.381967 14.1756 0
      vertex 0.542063 14.3691 0
    endloop
  endfacet
  facet normal 0 0 -1
    outer loop
      vertex 1.90735e-07 -10.15 0
      vertex 0.062834 -10.6474 0
      vertex 0.0157711 -10.4007 0
    endloop
  endfacet
  facet normal 0 0 -1
    outer loop
      vertex 2.01577 11.2507 0
      vertex 0.247387 13.9635 0
      vertex 0.381967 14.1756 0
    endloop
  endfacet
  facet normal 0 0 -1
    outer loop
      vertex 2.01577 11.2507 0
      vertex 0.140448 13.7362 0
      vertex 0.247387 13.9635 0
    endloop
  endfacet
  facet normal 0 0 -1
    outer loop
      vertex 2 -8.1 0
      vertex 1.90735e-07 -1.90735e-07 0
      vertex 2 -3.8147e-07 0
    endloop
  endfacet
  facet normal 0 0 -1
    outer loop
      vertex 2 -3.8147e-07 0
      vertex 1.90735e-07 -1.90735e-07 0
      vertex 2.02735e-07 0 0
    endloop
  endfacet
  facet normal 0 0 -1
    outer loop
      vertex 10.2 -2.1 0
      vertex 14.15 -3.8147e-07 0
      vertex 14.15 -0.800001 0
    endloop
  endfacet
  facet normal 0 -0 -1
    outer loop
      vertex 10.768 2.09789 0
      vertex 14.15 -3.8147e-07 0
      vertex 10.2 -2.1 0
    endloop
  endfacet
  facet normal 0 -0 -1
    outer loop
      vertex 11.0016 2.19035 0
      vertex 14.15 -3.8147e-07 0
      vertex 10.768 2.09789 0
    endloop
  endfacet
  facet normal 0 -0 -1
    outer loop
      vertex 11.4248 2.45897 0
      vertex 14.15 2.84085e-06 0
      vertex 11.2217 2.31135 0
    endloop
  endfacet
  facet normal 0 0 -1
    outer loop
      vertex 14.15 2.84085e-06 0
      vertex 11.4248 2.45897 0
      vertex 14.15 2 0
    endloop
  endfacet
  facet normal 0 -0 -1
    outer loop
      vertex 12.1342 3.74933 0
      vertex 14.15 2 0
      vertex 12.0872 3.50262 0
    endloop
  endfacet
  facet normal 0 0 -1
    outer loop
      vertex 14.15 5.5259 0
      vertex 12.1342 3.74933 0
      vertex 12.15 4 0
    endloop
  endfacet
  facet normal 0 0 -1
    outer loop
      vertex 14.15 2 0
      vertex 12.1342 3.74933 0
      vertex 14.15 5.5259 0
    endloop
  endfacet
  facet normal 0 0 -1
    outer loop
      vertex 14.15 2 0
      vertex 12.0096 3.26375 0
      vertex 12.0872 3.50262 0
    endloop
  endfacet
  facet normal 0 0 -1
    outer loop
      vertex 14.15 2 0
      vertex 11.9026 3.03649 0
      vertex 12.0096 3.26375 0
    endloop
  endfacet
  facet normal 0 0 -1
    outer loop
      vertex 14.15 2 0
      vertex 11.768 2.82443 0
      vertex 11.9026 3.03649 0
    endloop
  endfacet
  facet normal 0 -0 -1
    outer loop
      vertex 11.768 2.82443 0
      vertex 14.15 2 0
      vertex 11.6079 2.63091 0
    endloop
  endfacet
  facet normal 0 -0 -1
    outer loop
      vertex 11.6079 2.63091 0
      vertex 14.15 2 0
      vertex 11.4248 2.45897 0
    endloop
  endfacet
  facet normal 0 0 -1
    outer loop
      vertex 14.15 2.84085e-06 0
      vertex 11.0016 2.19035 0
      vertex 11.2217 2.31135 0
    endloop
  endfacet
  facet normal 0 0 -1
    outer loop
      vertex 14.15 -1.90735e-07 0
      vertex 11.0016 2.19035 0
      vertex 14.15 2.84085e-06 0
    endloop
  endfacet
  facet normal 0 0 -1
    outer loop
      vertex 14.15 -3.8147e-07 0
      vertex 11.0016 2.19035 0
      vertex 14.15 -1.90735e-07 0
    endloop
  endfacet
  facet normal 0 0 -1
    outer loop
      vertex 10.768 2.09789 0
      vertex 10.2 -2.1 0
      vertex 10.5248 2.03543 0
    endloop
  endfacet
  facet normal 0 0 -1
    outer loop
      vertex 10.5248 2.03543 0
      vertex 10.2 -2.1 0
      vertex 10.2756 2.00395 0
    endloop
  endfacet
  facet normal 0 0 -1
    outer loop
      vertex 10.15 2 0
      vertex 10.2756 2.00395 0
      vertex 10.2 -2.1 0
    endloop
  endfacet
  facet normal -0 0 -1
    outer loop
      vertex 10.2756 2.00395 0
      vertex 10.15 2 0
      vertex 10.15 2.00395 0
    endloop
  endfacet
  facet normal -0 0 -1
    outer loop
      vertex 14.15 5.5259 0
      vertex 12.15 4 0
      vertex 12.15 5.5259 0
    endloop
  endfacet
  facet normal 0 0 -1
    outer loop
      vertex 0 0 0
      vertex 1.90735e-07 2 0
      vertex 2.02735e-07 0 0
    endloop
  endfacet
  facet normal -0 0 -1
    outer loop
      vertex 1.90735e-07 2 0
      vertex 0 0 0
      vertex 0 2 0
    endloop
  endfacet
  facet normal 0 0 -1
    outer loop
      vertex 2.01577 11.2507 0
      vertex 0.062834 13.4974 0
      vertex 0.140448 13.7362 0
    endloop
  endfacet
  facet normal 0 0 -1
    outer loop
      vertex 2.01577 11.2507 0
      vertex 0.0157711 13.2507 0
      vertex 0.062834 13.4974 0
    endloop
  endfacet
  facet normal -0.684547 -0.728969 0
    outer loop
      vertex 0.542063 -11.5191 0
      vertex 0.725152 -11.691 5
      vertex 0.542063 -11.5191 5
    endloop
  endfacet
  facet normal -0.684547 -0.728969 -0
    outer loop
      vertex 0.725152 -11.691 5
      vertex 0.542063 -11.5191 0
      vertex 0.725152 -11.691 0
    endloop
  endfacet
  facet normal -0.844328 -0.535826 0
    outer loop
      vertex 0.381967 -11.3256 0
      vertex 0.247387 -11.1135 5
      vertex 0.247387 -11.1135 0
    endloop
  endfacet
  facet normal -0.844328 -0.535826 0
    outer loop
      vertex 0.247387 -11.1135 5
      vertex 0.381967 -11.3256 0
      vertex 0.381967 -11.3256 5
    endloop
  endfacet
  facet normal -0.951056 -0.309018 0
    outer loop
      vertex 0.140448 -10.8862 0
      vertex 0.062834 -10.6474 5
      vertex 0.062834 -10.6474 0
    endloop
  endfacet
  facet normal -0.951056 -0.309018 0
    outer loop
      vertex 0.062834 -10.6474 5
      vertex 0.140448 -10.8862 0
      vertex 0.140448 -10.8862 5
    endloop
  endfacet
  facet normal -0.368123 -0.929777 0
    outer loop
      vertex 1.14844 -11.9597 0
      vertex 1.38197 -12.0521 5
      vertex 1.14844 -11.9597 5
    endloop
  endfacet
  facet normal -0.368123 -0.929777 -0
    outer loop
      vertex 1.38197 -12.0521 5
      vertex 1.14844 -11.9597 0
      vertex 1.38197 -12.0521 0
    endloop
  endfacet
  facet normal -0.248688 -0.968584 0
    outer loop
      vertex 1.38197 -12.0521 0
      vertex 1.62524 -12.1146 5
      vertex 1.38197 -12.0521 5
    endloop
  endfacet
  facet normal -0.248688 -0.968584 -0
    outer loop
      vertex 1.62524 -12.1146 5
      vertex 1.38197 -12.0521 0
      vertex 1.62524 -12.1146 0
    endloop
  endfacet
  facet normal -0.904827 -0.425779 0
    outer loop
      vertex 0.247387 -11.1135 0
      vertex 0.140448 -10.8862 5
      vertex 0.140448 -10.8862 0
    endloop
  endfacet
  facet normal -0.904827 -0.425779 0
    outer loop
      vertex 0.140448 -10.8862 5
      vertex 0.247387 -11.1135 0
      vertex 0.247387 -11.1135 5
    endloop
  endfacet
  facet normal -0.982287 -0.187381 0
    outer loop
      vertex 0.062834 -10.6474 0
      vertex 0.0157711 -10.4007 5
      vertex 0.0157711 -10.4007 0
    endloop
  endfacet
  facet normal -0.982287 -0.187381 0
    outer loop
      vertex 0.0157711 -10.4007 5
      vertex 0.062834 -10.6474 0
      vertex 0.062834 -10.6474 5
    endloop
  endfacet
  facet normal -0.998027 -0.0627917 0
    outer loop
      vertex 0.0157711 -10.4007 0
      vertex 1.90735e-07 -10.15 5
      vertex 1.90735e-07 -10.15 0
    endloop
  endfacet
  facet normal -0.998027 -0.0627917 0
    outer loop
      vertex 1.90735e-07 -10.15 5
      vertex 0.0157711 -10.4007 0
      vertex 0.0157711 -10.4007 5
    endloop
  endfacet
  facet normal -0.481755 -0.876306 0
    outer loop
      vertex 0.928347 -11.8387 0
      vertex 1.14844 -11.9597 5
      vertex 0.928347 -11.8387 5
    endloop
  endfacet
  facet normal -0.481755 -0.876306 -0
    outer loop
      vertex 1.14844 -11.9597 5
      vertex 0.928347 -11.8387 0
      vertex 1.14844 -11.9597 0
    endloop
  endfacet
  facet normal -0.587786 -0.809017 0
    outer loop
      vertex 0.725152 -11.691 0
      vertex 0.928347 -11.8387 5
      vertex 0.725152 -11.691 5
    endloop
  endfacet
  facet normal -0.587786 -0.809017 -0
    outer loop
      vertex 0.928347 -11.8387 5
      vertex 0.725152 -11.691 0
      vertex 0.928347 -11.8387 0
    endloop
  endfacet
  facet normal -0.125333 -0.992115 0
    outer loop
      vertex 1.62524 -12.1146 0
      vertex 1.87442 -12.1461 5
      vertex 1.62524 -12.1146 5
    endloop
  endfacet
  facet normal -0.125333 -0.992115 -0
    outer loop
      vertex 1.87442 -12.1461 5
      vertex 1.62524 -12.1146 0
      vertex 1.87442 -12.1461 0
    endloop
  endfacet
  facet normal -0.998027 0.0627917 0
    outer loop
      vertex 1.90735e-07 -1.90735e-07 0
      vertex 2.02735e-07 0 5
      vertex 2.02735e-07 0 0
    endloop
  endfacet
  facet normal -0.998027 0.0627917 0
    outer loop
      vertex 2.02735e-07 0 5
      vertex 1.90735e-07 -1.90735e-07 0
      vertex 1.90735e-07 -1.90735e-07 5
    endloop
  endfacet
  facet normal 1 -0 0
    outer loop
      vertex 14.15 -1.90735e-07 5
      vertex 14.15 2.84085e-06 0
      vertex 14.15 2.84085e-06 5
    endloop
  endfacet
  facet normal 1 0 0
    outer loop
      vertex 14.15 2.84085e-06 0
      vertex 14.15 -1.90735e-07 5
      vertex 14.15 -1.90735e-07 0
    endloop
  endfacet
  facet normal -1 0 0
    outer loop
      vertex 1.90735e-07 -10.15 0
      vertex 1.90735e-07 -1.90735e-07 5
      vertex 1.90735e-07 -1.90735e-07 0
    endloop
  endfacet
  facet normal -1 -0 0
    outer loop
      vertex 1.90735e-07 -1.90735e-07 5
      vertex 1.90735e-07 -10.15 0
      vertex 1.90735e-07 -10.15 5
    endloop
  endfacet
  facet normal 1 -0 0
    outer loop
      vertex 14.15 -3.8147e-07 5
      vertex 14.15 -1.90735e-07 0
      vertex 14.15 -1.90735e-07 5
    endloop
  endfacet
  facet normal 1 0 0
    outer loop
      vertex 14.15 -1.90735e-07 0
      vertex 14.15 -3.8147e-07 5
      vertex 14.15 -3.8147e-07 0
    endloop
  endfacet
  facet normal -1 0 0
    outer loop
      vertex 2 -12.15 0
      vertex 2 -12.1461 5
      vertex 2 -12.1461 0
    endloop
  endfacet
  facet normal -1 -0 0
    outer loop
      vertex 2 -12.1461 5
      vertex 2 -12.15 0
      vertex 2 -12.15 5
    endloop
  endfacet
  facet normal 1 -0 0
    outer loop
      vertex 2 -8.1 5
      vertex 2 -3.8147e-07 0
      vertex 2 -3.8147e-07 5
    endloop
  endfacet
  facet normal 1 0 0
    outer loop
      vertex 2 -3.8147e-07 0
      vertex 2 -8.1 5
      vertex 2 -8.1 0
    endloop
  endfacet
  facet normal 0 -1 0
    outer loop
      vertex 2 -3.8147e-07 0
      vertex 10.1 -3.8147e-07 5
      vertex 2 -3.8147e-07 5
    endloop
  endfacet
  facet normal 0 -1 -0
    outer loop
      vertex 10.1 -3.8147e-07 5
      vertex 2 -3.8147e-07 0
      vertex 10.1 -3.8147e-07 0
    endloop
  endfacet
  facet normal 0 1 -0
    outer loop
      vertex 4.1 -8.1 0
      vertex 2 -8.1 5
      vertex 4.1 -8.1 5
    endloop
  endfacet
  facet normal 0 1 0
    outer loop
      vertex 2 -8.1 5
      vertex 4.1 -8.1 0
      vertex 2 -8.1 0
    endloop
  endfacet
  facet normal 0 -1 0
    outer loop
      vertex 2 -12.15 0
      vertex 2.8 -12.15 5
      vertex 2 -12.15 5
    endloop
  endfacet
  facet normal 0 -1 -0
    outer loop
      vertex 2.8 -12.15 5
      vertex 2 -12.15 0
      vertex 2.8 -12.15 0
    endloop
  endfacet
  facet normal 0.949879 -0.312618 0
    outer loop
      vertex 2.8 -12.15 5
      vertex 4.1 -8.2 0
      vertex 4.1 -8.2 5
    endloop
  endfacet
  facet normal 0.949879 -0.312618 0
    outer loop
      vertex 4.1 -8.2 0
      vertex 2.8 -12.15 5
      vertex 2.8 -12.15 0
    endloop
  endfacet
  facet normal 1 -0 0
    outer loop
      vertex 4.1 -8.2 5
      vertex 4.1 -8.1 0
      vertex 4.1 -8.1 5
    endloop
  endfacet
  facet normal 1 0 0
    outer loop
      vertex 4.1 -8.1 0
      vertex 4.1 -8.2 5
      vertex 4.1 -8.2 0
    endloop
  endfacet
  facet normal 0.312618 -0.949879 0
    outer loop
      vertex 10.2 -2.1 0
      vertex 14.15 -0.800001 5
      vertex 10.2 -2.1 5
    endloop
  endfacet
  facet normal 0.312618 -0.949879 0
    outer loop
      vertex 14.15 -0.800001 5
      vertex 10.2 -2.1 0
      vertex 14.15 -0.800001 0
    endloop
  endfacet
  facet normal -1 0 0
    outer loop
      vertex 10.1 -2.1 0
      vertex 10.1 -3.8147e-07 5
      vertex 10.1 -3.8147e-07 0
    endloop
  endfacet
  facet normal -1 -0 0
    outer loop
      vertex 10.1 -3.8147e-07 5
      vertex 10.1 -2.1 0
      vertex 10.1 -2.1 5
    endloop
  endfacet
  facet normal 0 -1 0
    outer loop
      vertex 10.1 -2.1 0
      vertex 10.2 -2.1 5
      vertex 10.1 -2.1 5
    endloop
  endfacet
  facet normal 0 -1 -0
    outer loop
      vertex 10.2 -2.1 5
      vertex 10.1 -2.1 0
      vertex 10.2 -2.1 0
    endloop
  endfacet
  facet normal 1 -0 0
    outer loop
      vertex 14.15 -0.800001 5
      vertex 14.15 -3.8147e-07 0
      vertex 14.15 -3.8147e-07 5
    endloop
  endfacet
  facet normal 1 0 0
    outer loop
      vertex 14.15 -3.8147e-07 0
      vertex 14.15 -0.800001 5
      vertex 14.15 -0.800001 0
    endloop
  endfacet
  facet normal -1 0 0
    outer loop
      vertex 0 0 0
      vertex 0 2 5
      vertex 0 2 0
    endloop
  endfacet
  facet normal -1 -0 0
    outer loop
      vertex 0 2 5
      vertex 0 0 0
      vertex 0 0 5
    endloop
  endfacet
  facet normal 1 -0 0
    outer loop
      vertex 14.15 2.84085e-06 5
      vertex 14.15 2 0
      vertex 14.15 2 5
    endloop
  endfacet
  facet normal 1 0 0
    outer loop
      vertex 14.15 2 0
      vertex 14.15 2.84085e-06 5
      vertex 14.15 2.84085e-06 0
    endloop
  endfacet
  facet normal 0 1 -0
    outer loop
      vertex 1.90735e-07 2 0
      vertex 0 2 5
      vertex 1.90735e-07 2 5
    endloop
  endfacet
  facet normal 0 1 0
    outer loop
      vertex 0 2 5
      vertex 1.90735e-07 2 0
      vertex 0 2 0
    endloop
  endfacet
  facet normal 0 1 -0
    outer loop
      vertex 10.15 2 0
      vertex 4 2 5
      vertex 10.15 2 5
    endloop
  endfacet
  facet normal 0 1 0
    outer loop
      vertex 4 2 5
      vertex 10.15 2 0
      vertex 4 2 0
    endloop
  endfacet
  facet normal 0 -1 0
    outer loop
      vertex 0 0 0
      vertex 2.02735e-07 0 5
      vertex 0 0 5
    endloop
  endfacet
  facet normal 0 -1 -0
    outer loop
      vertex 2.02735e-07 0 5
      vertex 0 0 0
      vertex 2.02735e-07 0 0
    endloop
  endfacet
  facet normal -0.951056 0.309018 0
    outer loop
      vertex 0.062834 13.4974 0
      vertex 0.140448 13.7362 5
      vertex 0.140448 13.7362 0
    endloop
  endfacet
  facet normal -0.951056 0.309018 0
    outer loop
      vertex 0.140448 13.7362 5
      vertex 0.062834 13.4974 0
      vertex 0.062834 13.4974 5
    endloop
  endfacet
  facet normal -0.368126 0.929776 0
    outer loop
      vertex 1.38197 14.9021 0
      vertex 1.14844 14.8097 5
      vertex 1.38197 14.9021 5
    endloop
  endfacet
  facet normal -0.368126 0.929776 0
    outer loop
      vertex 1.14844 14.8097 5
      vertex 1.38197 14.9021 0
      vertex 1.14844 14.8097 0
    endloop
  endfacet
  facet normal -0.904827 0.425779 0
    outer loop
      vertex 0.140448 13.7362 0
      vertex 0.247387 13.9635 5
      vertex 0.247387 13.9635 0
    endloop
  endfacet
  facet normal -0.904827 0.425779 0
    outer loop
      vertex 0.247387 13.9635 5
      vertex 0.140448 13.7362 0
      vertex 0.140448 13.7362 5
    endloop
  endfacet
  facet normal 0 1 -0
    outer loop
      vertex 2 14.9961 0
      vertex 1.87442 14.9961 5
      vertex 2 14.9961 5
    endloop
  endfacet
  facet normal 0 1 0
    outer loop
      vertex 1.87442 14.9961 5
      vertex 2 14.9961 0
      vertex 1.87442 14.9961 0
    endloop
  endfacet
  facet normal -0.770514 0.637423 0
    outer loop
      vertex 0.381967 14.1756 0
      vertex 0.542063 14.3691 5
      vertex 0.542063 14.3691 0
    endloop
  endfacet
  facet normal -0.770514 0.637423 0
    outer loop
      vertex 0.542063 14.3691 5
      vertex 0.381967 14.1756 0
      vertex 0.381967 14.1756 5
    endloop
  endfacet
  facet normal -0.684547 0.728969 0
    outer loop
      vertex 0.725152 14.541 0
      vertex 0.542063 14.3691 5
      vertex 0.725152 14.541 5
    endloop
  endfacet
  facet normal -0.684547 0.728969 0
    outer loop
      vertex 0.542063 14.3691 5
      vertex 0.725152 14.541 0
      vertex 0.542063 14.3691 0
    endloop
  endfacet
  facet normal -0.998027 0.062792 0
    outer loop
      vertex 1.90735e-07 13 0
      vertex 0.0157711 13.2507 5
      vertex 0.0157711 13.2507 0
    endloop
  endfacet
  facet normal -0.998027 0.062792 0
    outer loop
      vertex 0.0157711 13.2507 5
      vertex 1.90735e-07 13 0
      vertex 1.90735e-07 13 5
    endloop
  endfacet
  facet normal -0.844328 0.535826 0
    outer loop
      vertex 0.247387 13.9635 0
      vertex 0.381967 14.1756 5
      vertex 0.381967 14.1756 0
    endloop
  endfacet
  facet normal -0.844328 0.535826 0
    outer loop
      vertex 0.381967 14.1756 5
      vertex 0.247387 13.9635 0
      vertex 0.247387 13.9635 5
    endloop
  endfacet
  facet normal -0.125333 0.992115 0
    outer loop
      vertex 1.87442 14.9961 0
      vertex 1.62524 14.9646 5
      vertex 1.87442 14.9961 5
    endloop
  endfacet
  facet normal -0.125333 0.992115 0
    outer loop
      vertex 1.62524 14.9646 5
      vertex 1.87442 14.9961 0
      vertex 1.62524 14.9646 0
    endloop
  endfacet
  facet normal -0.248688 0.968584 0
    outer loop
      vertex 1.62524 14.9646 0
      vertex 1.38197 14.9021 5
      vertex 1.62524 14.9646 5
    endloop
  endfacet
  facet normal -0.248688 0.968584 0
    outer loop
      vertex 1.38197 14.9021 5
      vertex 1.62524 14.9646 0
      vertex 1.38197 14.9021 0
    endloop
  endfacet
  facet normal -0.481755 0.876306 0
    outer loop
      vertex 1.14844 14.8097 0
      vertex 0.928347 14.6887 5
      vertex 1.14844 14.8097 5
    endloop
  endfacet
  facet normal -0.481755 0.876306 0
    outer loop
      vertex 0.928347 14.6887 5
      vertex 1.14844 14.8097 0
      vertex 0.928347 14.6887 0
    endloop
  endfacet
  facet normal -0.587783 0.809018 0
    outer loop
      vertex 0.928347 14.6887 0
      vertex 0.725152 14.541 5
      vertex 0.928347 14.6887 5
    endloop
  endfacet
  facet normal -0.587783 0.809018 0
    outer loop
      vertex 0.725152 14.541 5
      vertex 0.928347 14.6887 0
      vertex 0.725152 14.541 0
    endloop
  endfacet
  facet normal -0.982287 0.18738 0
    outer loop
      vertex 0.0157711 13.2507 0
      vertex 0.062834 13.4974 5
      vertex 0.062834 13.4974 0
    endloop
  endfacet
  facet normal -0.982287 0.18738 0
    outer loop
      vertex 0.062834 13.4974 5
      vertex 0.0157711 13.2507 0
      vertex 0.0157711 13.2507 5
    endloop
  endfacet
  facet normal 0.844328 0.535826 0
    outer loop
      vertex 13.9026 13.9635 5
      vertex 13.768 14.1756 0
      vertex 13.768 14.1756 5
    endloop
  endfacet
  facet normal 0.844328 0.535826 0
    outer loop
      vertex 13.768 14.1756 0
      vertex 13.9026 13.9635 5
      vertex 13.9026 13.9635 0
    endloop
  endfacet
  facet normal 0.368126 0.929776 -0
    outer loop
      vertex 13.0016 14.8097 0
      vertex 12.768 14.9021 5
      vertex 13.0016 14.8097 5
    endloop
  endfacet
  facet normal 0.368126 0.929776 0
    outer loop
      vertex 12.768 14.9021 5
      vertex 13.0016 14.8097 0
      vertex 12.768 14.9021 0
    endloop
  endfacet
  facet normal 0.982287 0.18738 0
    outer loop
      vertex 14.1342 13.2507 5
      vertex 14.0872 13.4974 0
      vertex 14.0872 13.4974 5
    endloop
  endfacet
  facet normal 0.982287 0.18738 0
    outer loop
      vertex 14.0872 13.4974 0
      vertex 14.1342 13.2507 5
      vertex 14.1342 13.2507 0
    endloop
  endfacet
  facet normal 0.684547 0.728969 -0
    outer loop
      vertex 13.6079 14.3691 0
      vertex 13.4248 14.541 5
      vertex 13.6079 14.3691 5
    endloop
  endfacet
  facet normal 0.684547 0.728969 0
    outer loop
      vertex 13.4248 14.541 5
      vertex 13.6079 14.3691 0
      vertex 13.4248 14.541 0
    endloop
  endfacet
  facet normal 0 1 -0
    outer loop
      vertex 12.2756 14.9961 0
      vertex 12.15 14.9961 5
      vertex 12.2756 14.9961 5
    endloop
  endfacet
  facet normal 0 1 0
    outer loop
      vertex 12.15 14.9961 5
      vertex 12.2756 14.9961 0
      vertex 12.15 14.9961 0
    endloop
  endfacet
  facet normal 0.998027 0.062792 0
    outer loop
      vertex 14.15 13 5
      vertex 14.1342 13.2507 0
      vertex 14.1342 13.2507 5
    endloop
  endfacet
  facet normal 0.998027 0.062792 0
    outer loop
      vertex 14.1342 13.2507 0
      vertex 14.15 13 5
      vertex 14.15 13 0
    endloop
  endfacet
  facet normal 0.770514 0.637423 0
    outer loop
      vertex 13.768 14.1756 5
      vertex 13.6079 14.3691 0
      vertex 13.6079 14.3691 5
    endloop
  endfacet
  facet normal 0.770514 0.637423 0
    outer loop
      vertex 13.6079 14.3691 0
      vertex 13.768 14.1756 5
      vertex 13.768 14.1756 0
    endloop
  endfacet
  facet normal 0.248688 0.968584 -0
    outer loop
      vertex 12.768 14.9021 0
      vertex 12.5248 14.9646 5
      vertex 12.768 14.9021 5
    endloop
  endfacet
  facet normal 0.248688 0.968584 0
    outer loop
      vertex 12.5248 14.9646 5
      vertex 12.768 14.9021 0
      vertex 12.5248 14.9646 0
    endloop
  endfacet
  facet normal 0.125333 0.992115 -0
    outer loop
      vertex 12.5248 14.9646 0
      vertex 12.2756 14.9961 5
      vertex 12.5248 14.9646 5
    endloop
  endfacet
  facet normal 0.125333 0.992115 0
    outer loop
      vertex 12.2756 14.9961 5
      vertex 12.5248 14.9646 0
      vertex 12.2756 14.9961 0
    endloop
  endfacet
  facet normal 0.587783 0.809018 -0
    outer loop
      vertex 13.4248 14.541 0
      vertex 13.2217 14.6887 5
      vertex 13.4248 14.541 5
    endloop
  endfacet
  facet normal 0.587783 0.809018 0
    outer loop
      vertex 13.2217 14.6887 5
      vertex 13.4248 14.541 0
      vertex 13.2217 14.6887 0
    endloop
  endfacet
  facet normal 0.481755 0.876306 -0
    outer loop
      vertex 13.2217 14.6887 0
      vertex 13.0016 14.8097 5
      vertex 13.2217 14.6887 5
    endloop
  endfacet
  facet normal 0.481755 0.876306 0
    outer loop
      vertex 13.0016 14.8097 5
      vertex 13.2217 14.6887 0
      vertex 13.0016 14.8097 0
    endloop
  endfacet
  facet normal 0.904827 0.425779 0
    outer loop
      vertex 14.0096 13.7362 5
      vertex 13.9026 13.9635 0
      vertex 13.9026 13.9635 5
    endloop
  endfacet
  facet normal 0.904827 0.425779 0
    outer loop
      vertex 13.9026 13.9635 0
      vertex 14.0096 13.7362 5
      vertex 14.0096 13.7362 0
    endloop
  endfacet
  facet normal 0.951056 0.309018 0
    outer loop
      vertex 14.0872 13.4974 5
      vertex 14.0096 13.7362 0
      vertex 14.0096 13.7362 5
    endloop
  endfacet
  facet normal 0.951056 0.309018 0
    outer loop
      vertex 14.0096 13.7362 0
      vertex 14.0872 13.4974 5
      vertex 14.0872 13.4974 0
    endloop
  endfacet
  facet normal -1 0 0
    outer loop
      vertex 2 14.9961 0
      vertex 2 15 5
      vertex 2 15 0
    endloop
  endfacet
  facet normal -1 -0 0
    outer loop
      vertex 2 15 5
      vertex 2 14.9961 0
      vertex 2 14.9961 5
    endloop
  endfacet
  facet normal 1 -0 0
    outer loop
      vertex 12.15 14.9961 5
      vertex 12.15 15 0
      vertex 12.15 15 5
    endloop
  endfacet
  facet normal 1 0 0
    outer loop
      vertex 12.15 15 0
      vertex 12.15 14.9961 5
      vertex 12.15 14.9961 0
    endloop
  endfacet
  facet normal 0 1 -0
    outer loop
      vertex 12.15 15 0
      vertex 2 15 5
      vertex 12.15 15 5
    endloop
  endfacet
  facet normal 0 1 0
    outer loop
      vertex 2 15 5
      vertex 12.15 15 0
      vertex 2 15 0
    endloop
  endfacet
  facet normal -1 0 0
    outer loop
      vertex 1.90735e-07 2 0
      vertex 1.90735e-07 13 5
      vertex 1.90735e-07 13 0
    endloop
  endfacet
  facet normal -1 -0 0
    outer loop
      vertex 1.90735e-07 13 5
      vertex 1.90735e-07 2 0
      vertex 1.90735e-07 2 5
    endloop
  endfacet
  facet normal 1 -0 0
    outer loop
      vertex 14.15 2 5
      vertex 14.15 5.5259 0
      vertex 14.15 7.34575 5
    endloop
  endfacet
  facet normal 1 0 0
    outer loop
      vertex 14.15 5.5259 0
      vertex 14.15 2 5
      vertex 14.15 2 0
    endloop
  endfacet
  facet normal 1 -0 0
    outer loop
      vertex 14.15 9.4741 5
      vertex 14.15 13 0
      vertex 14.15 13 5
    endloop
  endfacet
  facet normal 1 0 0
    outer loop
      vertex 14.15 13 0
      vertex 14.15 9.4741 5
      vertex 14.15 7.65425 0
    endloop
  endfacet
  facet normal 0 1 -0
    outer loop
      vertex 4 2.00395 0
      vertex 3.87442 2.00395 5
      vertex 4 2.00395 5
    endloop
  endfacet
  facet normal 0 1 0
    outer loop
      vertex 3.87442 2.00395 5
      vertex 4 2.00395 0
      vertex 3.87442 2.00395 0
    endloop
  endfacet
  facet normal 0.684547 0.728969 -0
    outer loop
      vertex 2.72515 2.45897 0
      vertex 2.54206 2.63091 5
      vertex 2.72515 2.45897 5
    endloop
  endfacet
  facet normal 0.684547 0.728969 0
    outer loop
      vertex 2.54206 2.63091 5
      vertex 2.72515 2.45897 0
      vertex 2.54206 2.63091 0
    endloop
  endfacet
  facet normal 0.844328 0.535826 0
    outer loop
      vertex 2.38197 2.82443 5
      vertex 2.24739 3.03649 0
      vertex 2.24739 3.03649 5
    endloop
  endfacet
  facet normal 0.844328 0.535826 0
    outer loop
      vertex 2.24739 3.03649 0
      vertex 2.38197 2.82443 5
      vertex 2.38197 2.82443 0
    endloop
  endfacet
  facet normal 0.951056 0.309018 0
    outer loop
      vertex 2.14045 3.26375 5
      vertex 2.06283 3.50262 0
      vertex 2.06283 3.50262 5
    endloop
  endfacet
  facet normal 0.951056 0.309018 0
    outer loop
      vertex 2.06283 3.50262 0
      vertex 2.14045 3.26375 5
      vertex 2.14045 3.26375 0
    endloop
  endfacet
  facet normal 0.368126 0.929776 -0
    outer loop
      vertex 3.38197 2.09789 0
      vertex 3.14844 2.19035 5
      vertex 3.38197 2.09789 5
    endloop
  endfacet
  facet normal 0.368126 0.929776 0
    outer loop
      vertex 3.14844 2.19035 5
      vertex 3.38197 2.09789 0
      vertex 3.14844 2.19035 0
    endloop
  endfacet
  facet normal 0.248688 0.968584 -0
    outer loop
      vertex 3.62524 2.03543 0
      vertex 3.38197 2.09789 5
      vertex 3.62524 2.03543 5
    endloop
  endfacet
  facet normal 0.248688 0.968584 0
    outer loop
      vertex 3.38197 2.09789 5
      vertex 3.62524 2.03543 0
      vertex 3.38197 2.09789 0
    endloop
  endfacet
  facet normal 0.770514 0.637423 0
    outer loop
      vertex 2.54206 2.63091 5
      vertex 2.38197 2.82443 0
      vertex 2.38197 2.82443 5
    endloop
  endfacet
  facet normal 0.770514 0.637423 0
    outer loop
      vertex 2.38197 2.82443 0
      vertex 2.54206 2.63091 5
      vertex 2.54206 2.63091 0
    endloop
  endfacet
  facet normal 0.904827 0.425779 0
    outer loop
      vertex 2.24739 3.03649 5
      vertex 2.14045 3.26375 0
      vertex 2.14045 3.26375 5
    endloop
  endfacet
  facet normal 0.904827 0.425779 0
    outer loop
      vertex 2.14045 3.26375 0
      vertex 2.24739 3.03649 5
      vertex 2.24739 3.03649 0
    endloop
  endfacet
  facet normal 0.982287 0.18738 0
    outer loop
      vertex 2.06283 3.50262 5
      vertex 2.01577 3.74933 0
      vertex 2.01577 3.74933 5
    endloop
  endfacet
  facet normal 0.982287 0.18738 0
    outer loop
      vertex 2.01577 3.74933 0
      vertex 2.06283 3.50262 5
      vertex 2.06283 3.50262 0
    endloop
  endfacet
  facet normal 0.998027 0.062792 0
    outer loop
      vertex 2.01577 3.74933 5
      vertex 2 4 0
      vertex 2 4 5
    endloop
  endfacet
  facet normal 0.998027 0.062792 0
    outer loop
      vertex 2 4 0
      vertex 2.01577 3.74933 5
      vertex 2.01577 3.74933 0
    endloop
  endfacet
  facet normal 0.587783 0.809018 -0
    outer loop
      vertex 2.92835 2.31135 0
      vertex 2.72515 2.45897 5
      vertex 2.92835 2.31135 5
    endloop
  endfacet
  facet normal 0.587783 0.809018 0
    outer loop
      vertex 2.72515 2.45897 5
      vertex 2.92835 2.31135 0
      vertex 2.72515 2.45897 0
    endloop
  endfacet
  facet normal 0.125333 0.992115 -0
    outer loop
      vertex 3.87442 2.00395 0
      vertex 3.62524 2.03543 5
      vertex 3.87442 2.00395 5
    endloop
  endfacet
  facet normal 0.125333 0.992115 0
    outer loop
      vertex 3.62524 2.03543 5
      vertex 3.87442 2.00395 0
      vertex 3.62524 2.03543 0
    endloop
  endfacet
  facet normal 0.481755 0.876306 -0
    outer loop
      vertex 3.14844 2.19035 0
      vertex 2.92835 2.31135 5
      vertex 3.14844 2.19035 5
    endloop
  endfacet
  facet normal 0.481755 0.876306 0
    outer loop
      vertex 2.92835 2.31135 5
      vertex 3.14844 2.19035 0
      vertex 2.92835 2.31135 0
    endloop
  endfacet
  facet normal 0.951056 -0.309018 0
    outer loop
      vertex 2.06283 11.4974 5
      vertex 2.14045 11.7362 0
      vertex 2.14045 11.7362 5
    endloop
  endfacet
  facet normal 0.951056 -0.309018 0
    outer loop
      vertex 2.14045 11.7362 0
      vertex 2.06283 11.4974 5
      vertex 2.06283 11.4974 0
    endloop
  endfacet
  facet normal 0.368126 -0.929776 0
    outer loop
      vertex 3.14844 12.8097 0
      vertex 3.38197 12.9021 5
      vertex 3.14844 12.8097 5
    endloop
  endfacet
  facet normal 0.368126 -0.929776 0
    outer loop
      vertex 3.38197 12.9021 5
      vertex 3.14844 12.8097 0
      vertex 3.38197 12.9021 0
    endloop
  endfacet
  facet normal 0.904827 -0.425779 0
    outer loop
      vertex 2.14045 11.7362 5
      vertex 2.24739 11.9635 0
      vertex 2.24739 11.9635 5
    endloop
  endfacet
  facet normal 0.904827 -0.425779 0
    outer loop
      vertex 2.24739 11.9635 0
      vertex 2.14045 11.7362 5
      vertex 2.14045 11.7362 0
    endloop
  endfacet
  facet normal 0 -1 0
    outer loop
      vertex 3.87442 12.9961 0
      vertex 4 12.9961 5
      vertex 3.87442 12.9961 5
    endloop
  endfacet
  facet normal 0 -1 -0
    outer loop
      vertex 4 12.9961 5
      vertex 3.87442 12.9961 0
      vertex 4 12.9961 0
    endloop
  endfacet
  facet normal 0.770514 -0.637423 0
    outer loop
      vertex 2.38197 12.1756 5
      vertex 2.54206 12.3691 0
      vertex 2.54206 12.3691 5
    endloop
  endfacet
  facet normal 0.770514 -0.637423 0
    outer loop
      vertex 2.54206 12.3691 0
      vertex 2.38197 12.1756 5
      vertex 2.38197 12.1756 0
    endloop
  endfacet
  facet normal 0.684547 -0.728969 0
    outer loop
      vertex 2.54206 12.3691 0
      vertex 2.72515 12.541 5
      vertex 2.54206 12.3691 5
    endloop
  endfacet
  facet normal 0.684547 -0.728969 0
    outer loop
      vertex 2.72515 12.541 5
      vertex 2.54206 12.3691 0
      vertex 2.72515 12.541 0
    endloop
  endfacet
  facet normal 0.998027 -0.062792 0
    outer loop
      vertex 2 11 5
      vertex 2.01577 11.2507 0
      vertex 2.01577 11.2507 5
    endloop
  endfacet
  facet normal 0.998027 -0.062792 0
    outer loop
      vertex 2.01577 11.2507 0
      vertex 2 11 5
      vertex 2 11 0
    endloop
  endfacet
  facet normal 0.844328 -0.535826 0
    outer loop
      vertex 2.24739 11.9635 5
      vertex 2.38197 12.1756 0
      vertex 2.38197 12.1756 5
    endloop
  endfacet
  facet normal 0.844328 -0.535826 0
    outer loop
      vertex 2.38197 12.1756 0
      vertex 2.24739 11.9635 5
      vertex 2.24739 11.9635 0
    endloop
  endfacet
  facet normal 0.125333 -0.992115 0
    outer loop
      vertex 3.62524 12.9646 0
      vertex 3.87442 12.9961 5
      vertex 3.62524 12.9646 5
    endloop
  endfacet
  facet normal 0.125333 -0.992115 0
    outer loop
      vertex 3.87442 12.9961 5
      vertex 3.62524 12.9646 0
      vertex 3.87442 12.9961 0
    endloop
  endfacet
  facet normal 0.248688 -0.968584 0
    outer loop
      vertex 3.38197 12.9021 0
      vertex 3.62524 12.9646 5
      vertex 3.38197 12.9021 5
    endloop
  endfacet
  facet normal 0.248688 -0.968584 0
    outer loop
      vertex 3.62524 12.9646 5
      vertex 3.38197 12.9021 0
      vertex 3.62524 12.9646 0
    endloop
  endfacet
  facet normal 0.481755 -0.876306 0
    outer loop
      vertex 2.92835 12.6887 0
      vertex 3.14844 12.8097 5
      vertex 2.92835 12.6887 5
    endloop
  endfacet
  facet normal 0.481755 -0.876306 0
    outer loop
      vertex 3.14844 12.8097 5
      vertex 2.92835 12.6887 0
      vertex 3.14844 12.8097 0
    endloop
  endfacet
  facet normal 0.587783 -0.809018 0
    outer loop
      vertex 2.72515 12.541 0
      vertex 2.92835 12.6887 5
      vertex 2.72515 12.541 5
    endloop
  endfacet
  facet normal 0.587783 -0.809018 0
    outer loop
      vertex 2.92835 12.6887 5
      vertex 2.72515 12.541 0
      vertex 2.92835 12.6887 0
    endloop
  endfacet
  facet normal 0.982287 -0.18738 0
    outer loop
      vertex 2.01577 11.2507 5
      vertex 2.06283 11.4974 0
      vertex 2.06283 11.4974 5
    endloop
  endfacet
  facet normal 0.982287 -0.18738 0
    outer loop
      vertex 2.06283 11.4974 0
      vertex 2.01577 11.2507 5
      vertex 2.01577 11.2507 0
    endloop
  endfacet
  facet normal -0.998027 0.062792 0
    outer loop
      vertex 12.1342 3.74933 0
      vertex 12.15 4 5
      vertex 12.15 4 0
    endloop
  endfacet
  facet normal -0.998027 0.062792 0
    outer loop
      vertex 12.15 4 5
      vertex 12.1342 3.74933 0
      vertex 12.1342 3.74933 5
    endloop
  endfacet
  facet normal -0.481755 0.876306 0
    outer loop
      vertex 11.2217 2.31135 0
      vertex 11.0016 2.19035 5
      vertex 11.2217 2.31135 5
    endloop
  endfacet
  facet normal -0.481755 0.876306 0
    outer loop
      vertex 11.0016 2.19035 5
      vertex 11.2217 2.31135 0
      vertex 11.0016 2.19035 0
    endloop
  endfacet
  facet normal 0 1 -0
    outer loop
      vertex 10.2756 2.00395 0
      vertex 10.15 2.00395 5
      vertex 10.2756 2.00395 5
    endloop
  endfacet
  facet normal 0 1 0
    outer loop
      vertex 10.15 2.00395 5
      vertex 10.2756 2.00395 0
      vertex 10.15 2.00395 0
    endloop
  endfacet
  facet normal -0.368126 0.929776 0
    outer loop
      vertex 11.0016 2.19035 0
      vertex 10.768 2.09789 5
      vertex 11.0016 2.19035 5
    endloop
  endfacet
  facet normal -0.368126 0.929776 0
    outer loop
      vertex 10.768 2.09789 5
      vertex 11.0016 2.19035 0
      vertex 10.768 2.09789 0
    endloop
  endfacet
  facet normal -0.587783 0.809018 0
    outer loop
      vertex 11.4248 2.45897 0
      vertex 11.2217 2.31135 5
      vertex 11.4248 2.45897 5
    endloop
  endfacet
  facet normal -0.587783 0.809018 0
    outer loop
      vertex 11.2217 2.31135 5
      vertex 11.4248 2.45897 0
      vertex 11.2217 2.31135 0
    endloop
  endfacet
  facet normal -0.982287 0.18738 0
    outer loop
      vertex 12.0872 3.50262 0
      vertex 12.1342 3.74933 5
      vertex 12.1342 3.74933 0
    endloop
  endfacet
  facet normal -0.982287 0.18738 0
    outer loop
      vertex 12.1342 3.74933 5
      vertex 12.0872 3.50262 0
      vertex 12.0872 3.50262 5
    endloop
  endfacet
  facet normal -0.844328 0.535826 0
    outer loop
      vertex 11.768 2.82443 0
      vertex 11.9026 3.03649 5
      vertex 11.9026 3.03649 0
    endloop
  endfacet
  facet normal -0.844328 0.535826 0
    outer loop
      vertex 11.9026 3.03649 5
      vertex 11.768 2.82443 0
      vertex 11.768 2.82443 5
    endloop
  endfacet
  facet normal -0.248688 0.968584 0
    outer loop
      vertex 10.768 2.09789 0
      vertex 10.5248 2.03543 5
      vertex 10.768 2.09789 5
    endloop
  endfacet
  facet normal -0.248688 0.968584 0
    outer loop
      vertex 10.5248 2.03543 5
      vertex 10.768 2.09789 0
      vertex 10.5248 2.03543 0
    endloop
  endfacet
  facet normal -0.684547 0.728969 0
    outer loop
      vertex 11.6079 2.63091 0
      vertex 11.4248 2.45897 5
      vertex 11.6079 2.63091 5
    endloop
  endfacet
  facet normal -0.684547 0.728969 0
    outer loop
      vertex 11.4248 2.45897 5
      vertex 11.6079 2.63091 0
      vertex 11.4248 2.45897 0
    endloop
  endfacet
  facet normal -0.904827 0.425779 0
    outer loop
      vertex 11.9026 3.03649 0
      vertex 12.0096 3.26375 5
      vertex 12.0096 3.26375 0
    endloop
  endfacet
  facet normal -0.904827 0.425779 0
    outer loop
      vertex 12.0096 3.26375 5
      vertex 11.9026 3.03649 0
      vertex 11.9026 3.03649 5
    endloop
  endfacet
  facet normal -0.951056 0.309018 0
    outer loop
      vertex 12.0096 3.26375 0
      vertex 12.0872 3.50262 5
      vertex 12.0872 3.50262 0
    endloop
  endfacet
  facet normal -0.951056 0.309018 0
    outer loop
      vertex 12.0872 3.50262 5
      vertex 12.0096 3.26375 0
      vertex 12.0096 3.26375 5
    endloop
  endfacet
  facet normal -0.125333 0.992115 0
    outer loop
      vertex 10.5248 2.03543 0
      vertex 10.2756 2.00395 5
      vertex 10.5248 2.03543 5
    endloop
  endfacet
  facet normal -0.125333 0.992115 0
    outer loop
      vertex 10.2756 2.00395 5
      vertex 10.5248 2.03543 0
      vertex 10.2756 2.00395 0
    endloop
  endfacet
  facet normal -0.770514 0.637423 0
    outer loop
      vertex 11.6079 2.63091 0
      vertex 11.768 2.82443 5
      vertex 11.768 2.82443 0
    endloop
  endfacet
  facet normal -0.770514 0.637423 0
    outer loop
      vertex 11.768 2.82443 5
      vertex 11.6079 2.63091 0
      vertex 11.6079 2.63091 5
    endloop
  endfacet
  facet normal -0.844328 -0.535826 0
    outer loop
      vertex 11.9026 11.9635 0
      vertex 11.768 12.1756 5
      vertex 11.768 12.1756 0
    endloop
  endfacet
  facet normal -0.844328 -0.535826 0
    outer loop
      vertex 11.768 12.1756 5
      vertex 11.9026 11.9635 0
      vertex 11.9026 11.9635 5
    endloop
  endfacet
  facet normal -0.368126 -0.929776 0
    outer loop
      vertex 10.768 12.9021 0
      vertex 11.0016 12.8097 5
      vertex 10.768 12.9021 5
    endloop
  endfacet
  facet normal -0.368126 -0.929776 -0
    outer loop
      vertex 11.0016 12.8097 5
      vertex 10.768 12.9021 0
      vertex 11.0016 12.8097 0
    endloop
  endfacet
  facet normal -0.982287 -0.18738 0
    outer loop
      vertex 12.1342 11.2507 0
      vertex 12.0872 11.4974 5
      vertex 12.0872 11.4974 0
    endloop
  endfacet
  facet normal -0.982287 -0.18738 0
    outer loop
      vertex 12.0872 11.4974 5
      vertex 12.1342 11.2507 0
      vertex 12.1342 11.2507 5
    endloop
  endfacet
  facet normal -0.684547 -0.728969 0
    outer loop
      vertex 11.4248 12.541 0
      vertex 11.6079 12.3691 5
      vertex 11.4248 12.541 5
    endloop
  endfacet
  facet normal -0.684547 -0.728969 -0
    outer loop
      vertex 11.6079 12.3691 5
      vertex 11.4248 12.541 0
      vertex 11.6079 12.3691 0
    endloop
  endfacet
  facet normal 0 -1 0
    outer loop
      vertex 10.15 12.9961 0
      vertex 10.2756 12.9961 5
      vertex 10.15 12.9961 5
    endloop
  endfacet
  facet normal 0 -1 -0
    outer loop
      vertex 10.2756 12.9961 5
      vertex 10.15 12.9961 0
      vertex 10.2756 12.9961 0
    endloop
  endfacet
  facet normal -0.481755 -0.876306 0
    outer loop
      vertex 11.0016 12.8097 0
      vertex 11.2217 12.6887 5
      vertex 11.0016 12.8097 5
    endloop
  endfacet
  facet normal -0.481755 -0.876306 -0
    outer loop
      vertex 11.2217 12.6887 5
      vertex 11.0016 12.8097 0
      vertex 11.2217 12.6887 0
    endloop
  endfacet
  facet normal -0.998027 -0.062792 0
    outer loop
      vertex 12.15 11 0
      vertex 12.1342 11.2507 5
      vertex 12.1342 11.2507 0
    endloop
  endfacet
  facet normal -0.998027 -0.062792 0
    outer loop
      vertex 12.1342 11.2507 5
      vertex 12.15 11 0
      vertex 12.15 11 5
    endloop
  endfacet
  facet normal -0.770514 -0.637423 0
    outer loop
      vertex 11.768 12.1756 0
      vertex 11.6079 12.3691 5
      vertex 11.6079 12.3691 0
    endloop
  endfacet
  facet normal -0.770514 -0.637423 0
    outer loop
      vertex 11.6079 12.3691 5
      vertex 11.768 12.1756 0
      vertex 11.768 12.1756 5
    endloop
  endfacet
  facet normal -0.248688 -0.968584 0
    outer loop
      vertex 10.5248 12.9646 0
      vertex 10.768 12.9021 5
      vertex 10.5248 12.9646 5
    endloop
  endfacet
  facet normal -0.248688 -0.968584 -0
    outer loop
      vertex 10.768 12.9021 5
      vertex 10.5248 12.9646 0
      vertex 10.768 12.9021 0
    endloop
  endfacet
  facet normal -0.125333 -0.992115 0
    outer loop
      vertex 10.2756 12.9961 0
      vertex 10.5248 12.9646 5
      vertex 10.2756 12.9961 5
    endloop
  endfacet
  facet normal -0.125333 -0.992115 -0
    outer loop
      vertex 10.5248 12.9646 5
      vertex 10.2756 12.9961 0
      vertex 10.5248 12.9646 0
    endloop
  endfacet
  facet normal -0.587783 -0.809018 0
    outer loop
      vertex 11.2217 12.6887 0
      vertex 11.4248 12.541 5
      vertex 11.2217 12.6887 5
    endloop
  endfacet
  facet normal -0.587783 -0.809018 -0
    outer loop
      vertex 11.4248 12.541 5
      vertex 11.2217 12.6887 0
      vertex 11.4248 12.541 0
    endloop
  endfacet
  facet normal -0.904827 -0.425779 0
    outer loop
      vertex 12.0096 11.7362 0
      vertex 11.9026 11.9635 5
      vertex 11.9026 11.9635 0
    endloop
  endfacet
  facet normal -0.904827 -0.425779 0
    outer loop
      vertex 11.9026 11.9635 5
      vertex 12.0096 11.7362 0
      vertex 12.0096 11.7362 5
    endloop
  endfacet
  facet normal -0.951056 -0.309018 0
    outer loop
      vertex 12.0872 11.4974 0
      vertex 12.0096 11.7362 5
      vertex 12.0096 11.7362 0
    endloop
  endfacet
  facet normal -0.951056 -0.309018 0
    outer loop
      vertex 12.0096 11.7362 5
      vertex 12.0872 11.4974 0
      vertex 12.0872 11.4974 5
    endloop
  endfacet
  facet normal 1 -0 0
    outer loop
      vertex 4 2 5
      vertex 4 2.00395 0
      vertex 4 2.00395 5
    endloop
  endfacet
  facet normal 1 0 0
    outer loop
      vertex 4 2.00395 0
      vertex 4 2 5
      vertex 4 2 0
    endloop
  endfacet
  facet normal 1 -0 0
    outer loop
      vertex 4 12.9961 5
      vertex 4 13 0
      vertex 4 13 5
    endloop
  endfacet
  facet normal 1 0 0
    outer loop
      vertex 4 13 0
      vertex 4 12.9961 5
      vertex 4 12.9961 0
    endloop
  endfacet
  facet normal -1 0 0
    outer loop
      vertex 10.15 2 0
      vertex 10.15 2.00395 5
      vertex 10.15 2.00395 0
    endloop
  endfacet
  facet normal -1 -0 0
    outer loop
      vertex 10.15 2.00395 5
      vertex 10.15 2 0
      vertex 10.15 2 5
    endloop
  endfacet
  facet normal -1 0 0
    outer loop
      vertex 10.15 12.9961 0
      vertex 10.15 13 5
      vertex 10.15 13 0
    endloop
  endfacet
  facet normal -1 -0 0
    outer loop
      vertex 10.15 13 5
      vertex 10.15 12.9961 0
      vertex 10.15 12.9961 5
    endloop
  endfacet
  facet normal 0 -1 0
    outer loop
      vertex 4 13 0
      vertex 10.15 13 5
      vertex 4 13 5
    endloop
  endfacet
  facet normal 0 -1 -0
    outer loop
      vertex 10.15 13 5
      vertex 4 13 0
      vertex 10.15 13 0
    endloop
  endfacet
  facet normal 1 -0 0
    outer loop
      vertex 2 4 5
      vertex 2 11 0
      vertex 2 11 5
    endloop
  endfacet
  facet normal 1 0 0
    outer loop
      vertex 2 11 0
      vertex 2 4 5
      vertex 2 4 0
    endloop
  endfacet
  facet normal -1 0 0
    outer loop
      vertex 12.15 4 5
      vertex 12.15 5.5259 0
      vertex 12.15 4 0
    endloop
  endfacet
  facet normal -1 0 0
    outer loop
      vertex 12.15 5.5259 0
      vertex 12.15 4 5
      vertex 12.15 7.34575 5
    endloop
  endfacet
  facet normal -1 0 0
    outer loop
      vertex 12.15 11 0
      vertex 12.15 9.4741 5
      vertex 12.15 11 5
    endloop
  endfacet
  facet normal -1 0 -0
    outer loop
      vertex 12.15 9.4741 5
      vertex 12.15 11 0
      vertex 12.15 7.65425 0
    endloop
  endfacet
  facet normal 0 0.939693 -0.34202
    outer loop
      vertex 14.15 5.5259 0
      vertex 12.15 7.34575 5
      vertex 14.15 7.34575 5
    endloop
  endfacet
  facet normal 0 0.939693 -0.34202
    outer loop
      vertex 12.15 7.34575 5
      vertex 14.15 5.5259 0
      vertex 12.15 5.5259 0
    endloop
  endfacet
  facet normal 0 -0.939693 0.34202
    outer loop
      vertex 12.15 7.65425 0
      vertex 14.15 9.4741 5
      vertex 12.15 9.4741 5
    endloop
  endfacet
  facet normal 0 -0.939693 0.34202
    outer loop
      vertex 14.15 9.4741 5
      vertex 12.15 7.65425 0
      vertex 14.15 7.65425 0
    endloop
  endfacet
endsolid OpenSCAD_Model
