solid OpenSCAD_Model
  facet normal 0.998027 0.0627918 0
    outer loop
      vertex 6 0 1.5
      vertex 5.95269 0.751999 0
      vertex 5.95269 0.751999 1.5
    endloop
  endfacet
  facet normal 0.998027 0.0627918 0
    outer loop
      vertex 5.95269 0.751999 0
      vertex 6 0 1.5
      vertex 6 0 0
    endloop
  endfacet
  facet normal -0.998027 0.0627918 0
    outer loop
      vertex -6 0 0
      vertex -5.95269 0.751999 1.5
      vertex -5.95269 0.751999 0
    endloop
  endfacet
  facet normal -0.998027 0.0627918 0
    outer loop
      vertex -5.95269 0.751999 1.5
      vertex -6 0 0
      vertex -6 0 1.5
    endloop
  endfacet
  facet normal 0 1 -0
    outer loop
      vertex 0.376742 5.98816 0
      vertex -0.376742 5.98816 1.5
      vertex 0.376742 5.98816 1.5
    endloop
  endfacet
  facet normal 0 1 0
    outer loop
      vertex -0.376742 5.98816 1.5
      vertex 0.376742 5.98816 0
      vertex -0.376742 5.98816 0
    endloop
  endfacet
  facet normal 0 -1 0
    outer loop
      vertex -0.376742 -5.98816 0
      vertex 0.376742 -5.98816 1.5
      vertex -0.376742 -5.98816 1.5
    endloop
  endfacet
  facet normal 0 -1 -0
    outer loop
      vertex 0.376742 -5.98816 1.5
      vertex -0.376742 -5.98816 0
      vertex 0.376742 -5.98816 0
    endloop
  endfacet
  facet normal 0.684547 0.728969 -0
    outer loop
      vertex 4.37381 4.10728 0
      vertex 3.82454 4.62308 1.5
      vertex 4.37381 4.10728 1.5
    endloop
  endfacet
  facet normal 0.684547 0.728969 0
    outer loop
      vertex 3.82454 4.62308 1.5
      vertex 4.37381 4.10728 0
      vertex 3.82454 4.62308 0
    endloop
  endfacet
  facet normal -0.684547 0.728969 0
    outer loop
      vertex -3.82454 4.62308 0
      vertex -4.37381 4.10728 1.5
      vertex -3.82454 4.62308 1.5
    endloop
  endfacet
  facet normal -0.684547 0.728969 0
    outer loop
      vertex -4.37381 4.10728 1.5
      vertex -3.82454 4.62308 0
      vertex -4.37381 4.10728 0
    endloop
  endfacet
  facet normal -0.368125 0.929776 0
    outer loop
      vertex -1.8541 5.70634 0
      vertex -2.55468 5.42896 1.5
      vertex -1.8541 5.70634 1.5
    endloop
  endfacet
  facet normal -0.368125 0.929776 0
    outer loop
      vertex -2.55468 5.42896 1.5
      vertex -1.8541 5.70634 0
      vertex -2.55468 5.42896 0
    endloop
  endfacet
  facet normal 0.904827 0.425779 0
    outer loop
      vertex 5.57866 2.20875 1.5
      vertex 5.25784 2.89052 0
      vertex 5.25784 2.89052 1.5
    endloop
  endfacet
  facet normal 0.904827 0.425779 0
    outer loop
      vertex 5.25784 2.89052 0
      vertex 5.57866 2.20875 1.5
      vertex 5.57866 2.20875 0
    endloop
  endfacet
  facet normal 0.982287 0.187381 0
    outer loop
      vertex 5.95269 0.751999 1.5
      vertex 5.8115 1.49214 0
      vertex 5.8115 1.49214 1.5
    endloop
  endfacet
  facet normal 0.982287 0.187381 0
    outer loop
      vertex 5.8115 1.49214 0
      vertex 5.95269 0.751999 1.5
      vertex 5.95269 0.751999 0
    endloop
  endfacet
  facet normal 0.368125 0.929776 -0
    outer loop
      vertex 2.55468 5.42896 0
      vertex 1.8541 5.70634 1.5
      vertex 2.55468 5.42896 1.5
    endloop
  endfacet
  facet normal 0.368125 0.929776 0
    outer loop
      vertex 1.8541 5.70634 1.5
      vertex 2.55468 5.42896 0
      vertex 1.8541 5.70634 0
    endloop
  endfacet
  facet normal 0.24869 0.968583 -0
    outer loop
      vertex 1.8541 5.70634 0
      vertex 1.12429 5.89372 1.5
      vertex 1.8541 5.70634 1.5
    endloop
  endfacet
  facet normal 0.24869 0.968583 0
    outer loop
      vertex 1.12429 5.89372 1.5
      vertex 1.8541 5.70634 0
      vertex 1.12429 5.89372 0
    endloop
  endfacet
  facet normal 0.481754 0.876306 -0
    outer loop
      vertex 3.21496 5.06597 0
      vertex 2.55468 5.42896 1.5
      vertex 3.21496 5.06597 1.5
    endloop
  endfacet
  facet normal 0.481754 0.876306 0
    outer loop
      vertex 2.55468 5.42896 1.5
      vertex 3.21496 5.06597 0
      vertex 2.55468 5.42896 0
    endloop
  endfacet
  facet normal -0.904827 0.425779 0
    outer loop
      vertex -5.57866 2.20875 0
      vertex -5.25784 2.89052 1.5
      vertex -5.25784 2.89052 0
    endloop
  endfacet
  facet normal -0.904827 0.425779 0
    outer loop
      vertex -5.25784 2.89052 1.5
      vertex -5.57866 2.20875 0
      vertex -5.57866 2.20875 1.5
    endloop
  endfacet
  facet normal -0.951056 0.309018 0
    outer loop
      vertex -5.8115 1.49214 0
      vertex -5.57866 2.20875 1.5
      vertex -5.57866 2.20875 0
    endloop
  endfacet
  facet normal -0.951056 0.309018 0
    outer loop
      vertex -5.57866 2.20875 1.5
      vertex -5.8115 1.49214 0
      vertex -5.8115 1.49214 1.5
    endloop
  endfacet
  facet normal -0.125333 0.992115 0
    outer loop
      vertex -0.376742 5.98816 0
      vertex -1.12429 5.89372 1.5
      vertex -0.376742 5.98816 1.5
    endloop
  endfacet
  facet normal -0.125333 0.992115 0
    outer loop
      vertex -1.12429 5.89372 1.5
      vertex -0.376742 5.98816 0
      vertex -1.12429 5.89372 0
    endloop
  endfacet
  facet normal 0.125333 -0.992115 0
    outer loop
      vertex 0.376742 -5.98816 0
      vertex 1.12429 -5.89372 1.5
      vertex 0.376742 -5.98816 1.5
    endloop
  endfacet
  facet normal 0.125333 -0.992115 0
    outer loop
      vertex 1.12429 -5.89372 1.5
      vertex 0.376742 -5.98816 0
      vertex 1.12429 -5.89372 0
    endloop
  endfacet
  facet normal 0.368125 -0.929776 0
    outer loop
      vertex 1.8541 -5.70634 0
      vertex 2.55468 -5.42896 1.5
      vertex 1.8541 -5.70634 1.5
    endloop
  endfacet
  facet normal 0.368125 -0.929776 0
    outer loop
      vertex 2.55468 -5.42896 1.5
      vertex 1.8541 -5.70634 0
      vertex 2.55468 -5.42896 0
    endloop
  endfacet
  facet normal 0.951056 0.309018 0
    outer loop
      vertex 5.8115 1.49214 1.5
      vertex 5.57866 2.20875 0
      vertex 5.57866 2.20875 1.5
    endloop
  endfacet
  facet normal 0.951056 0.309018 0
    outer loop
      vertex 5.57866 2.20875 0
      vertex 5.8115 1.49214 1.5
      vertex 5.8115 1.49214 0
    endloop
  endfacet
  facet normal 0.770513 0.637424 0
    outer loop
      vertex 4.8541 3.52671 1.5
      vertex 4.37381 4.10728 0
      vertex 4.37381 4.10728 1.5
    endloop
  endfacet
  facet normal 0.770513 0.637424 0
    outer loop
      vertex 4.37381 4.10728 0
      vertex 4.8541 3.52671 1.5
      vertex 4.8541 3.52671 0
    endloop
  endfacet
  facet normal 0.844328 0.535827 0
    outer loop
      vertex 5.25784 2.89052 1.5
      vertex 4.8541 3.52671 0
      vertex 4.8541 3.52671 1.5
    endloop
  endfacet
  facet normal 0.844328 0.535827 0
    outer loop
      vertex 4.8541 3.52671 0
      vertex 5.25784 2.89052 1.5
      vertex 5.25784 2.89052 0
    endloop
  endfacet
  facet normal 0.125333 0.992115 -0
    outer loop
      vertex 1.12429 5.89372 0
      vertex 0.376742 5.98816 1.5
      vertex 1.12429 5.89372 1.5
    endloop
  endfacet
  facet normal 0.125333 0.992115 0
    outer loop
      vertex 0.376742 5.98816 1.5
      vertex 1.12429 5.89372 0
      vertex 0.376742 5.98816 0
    endloop
  endfacet
  facet normal 0.587785 0.809017 -0
    outer loop
      vertex 3.82454 4.62308 0
      vertex 3.21496 5.06597 1.5
      vertex 3.82454 4.62308 1.5
    endloop
  endfacet
  facet normal 0.587785 0.809017 0
    outer loop
      vertex 3.21496 5.06597 1.5
      vertex 3.82454 4.62308 0
      vertex 3.21496 5.06597 0
    endloop
  endfacet
  facet normal -0.844328 0.535827 0
    outer loop
      vertex -5.25784 2.89052 0
      vertex -4.8541 3.52671 1.5
      vertex -4.8541 3.52671 0
    endloop
  endfacet
  facet normal -0.844328 0.535827 0
    outer loop
      vertex -4.8541 3.52671 1.5
      vertex -5.25784 2.89052 0
      vertex -5.25784 2.89052 1.5
    endloop
  endfacet
  facet normal -0.770513 0.637424 0
    outer loop
      vertex -4.8541 3.52671 0
      vertex -4.37381 4.10728 1.5
      vertex -4.37381 4.10728 0
    endloop
  endfacet
  facet normal -0.770513 0.637424 0
    outer loop
      vertex -4.37381 4.10728 1.5
      vertex -4.8541 3.52671 0
      vertex -4.8541 3.52671 1.5
    endloop
  endfacet
  facet normal -0.982287 0.187381 0
    outer loop
      vertex -5.95269 0.751999 0
      vertex -5.8115 1.49214 1.5
      vertex -5.8115 1.49214 0
    endloop
  endfacet
  facet normal -0.982287 0.187381 0
    outer loop
      vertex -5.8115 1.49214 1.5
      vertex -5.95269 0.751999 0
      vertex -5.95269 0.751999 1.5
    endloop
  endfacet
  facet normal 0 0 1
    outer loop
      vertex 3.85 0 1.5
      vertex 6 0 1.5
      vertex 5.95269 0.751999 1.5
    endloop
  endfacet
  facet normal 0 0 1
    outer loop
      vertex 3.81964 0.482533 1.5
      vertex 5.95269 0.751999 1.5
      vertex 5.8115 1.49214 1.5
    endloop
  endfacet
  facet normal 0 0 1
    outer loop
      vertex 6 0 1.5
      vertex 3.85 0 1.5
      vertex 5.95269 -0.751999 1.5
    endloop
  endfacet
  facet normal 0 0 1
    outer loop
      vertex 3.72904 0.957456 1.5
      vertex 5.8115 1.49214 1.5
      vertex 5.57866 2.20875 1.5
    endloop
  endfacet
  facet normal -0 0 1
    outer loop
      vertex 3.81964 -0.482533 1.5
      vertex 5.95269 -0.751999 1.5
      vertex 3.85 0 1.5
    endloop
  endfacet
  facet normal 0 0 1
    outer loop
      vertex 3.57964 1.41728 1.5
      vertex 5.57866 2.20875 1.5
      vertex 5.25784 2.89052 1.5
    endloop
  endfacet
  facet normal 0 0 1
    outer loop
      vertex 5.95269 -0.751999 1.5
      vertex 3.81964 -0.482533 1.5
      vertex 5.8115 -1.49214 1.5
    endloop
  endfacet
  facet normal 0 0 1
    outer loop
      vertex 3.37378 1.85475 1.5
      vertex 5.25784 2.89052 1.5
      vertex 4.8541 3.52671 1.5
    endloop
  endfacet
  facet normal -0 0 1
    outer loop
      vertex 3.72904 -0.957456 1.5
      vertex 5.8115 -1.49214 1.5
      vertex 3.81964 -0.482533 1.5
    endloop
  endfacet
  facet normal 0 0 1
    outer loop
      vertex 3.11471 2.26297 1.5
      vertex 4.8541 3.52671 1.5
      vertex 4.37381 4.10728 1.5
    endloop
  endfacet
  facet normal 0 0 1
    outer loop
      vertex 5.8115 -1.49214 1.5
      vertex 3.72904 -0.957456 1.5
      vertex 5.57866 -2.20875 1.5
    endloop
  endfacet
  facet normal -0 0 1
    outer loop
      vertex 3.57964 -1.41728 1.5
      vertex 5.57866 -2.20875 1.5
      vertex 3.72904 -0.957456 1.5
    endloop
  endfacet
  facet normal 0 0 1
    outer loop
      vertex 2.80653 2.63551 1.5
      vertex 4.37381 4.10728 1.5
      vertex 3.82454 4.62308 1.5
    endloop
  endfacet
  facet normal 0 0 1
    outer loop
      vertex 5.95269 0.751999 1.5
      vertex 3.81964 0.482533 1.5
      vertex 3.85 0 1.5
    endloop
  endfacet
  facet normal 0 0 1
    outer loop
      vertex 5.8115 1.49214 1.5
      vertex 3.72904 0.957456 1.5
      vertex 3.81964 0.482533 1.5
    endloop
  endfacet
  facet normal 0 0 1
    outer loop
      vertex 5.57866 2.20875 1.5
      vertex 3.57964 1.41728 1.5
      vertex 3.72904 0.957456 1.5
    endloop
  endfacet
  facet normal 0 0 1
    outer loop
      vertex 5.25784 2.89052 1.5
      vertex 3.37378 1.85475 1.5
      vertex 3.57964 1.41728 1.5
    endloop
  endfacet
  facet normal 0 0 1
    outer loop
      vertex 2.45408 2.96648 1.5
      vertex 3.82454 4.62308 1.5
      vertex 3.21496 5.06597 1.5
    endloop
  endfacet
  facet normal 0 0 1
    outer loop
      vertex 4.8541 3.52671 1.5
      vertex 3.11471 2.26297 1.5
      vertex 3.37378 1.85475 1.5
    endloop
  endfacet
  facet normal 0 0 1
    outer loop
      vertex 4.37381 4.10728 1.5
      vertex 2.80653 2.63551 1.5
      vertex 3.11471 2.26297 1.5
    endloop
  endfacet
  facet normal 0 0 1
    outer loop
      vertex 2.06293 3.25066 1.5
      vertex 3.21496 5.06597 1.5
      vertex 2.55468 5.42896 1.5
    endloop
  endfacet
  facet normal 0 0 1
    outer loop
      vertex 3.82454 4.62308 1.5
      vertex 2.45408 2.96648 1.5
      vertex 2.80653 2.63551 1.5
    endloop
  endfacet
  facet normal 0 0 1
    outer loop
      vertex 3.21496 5.06597 1.5
      vertex 2.06293 3.25066 1.5
      vertex 2.45408 2.96648 1.5
    endloop
  endfacet
  facet normal 0 0 1
    outer loop
      vertex 1.63925 3.48358 1.5
      vertex 2.55468 5.42896 1.5
      vertex 1.8541 5.70634 1.5
    endloop
  endfacet
  facet normal 0 0 1
    outer loop
      vertex 2.55468 5.42896 1.5
      vertex 1.63925 3.48358 1.5
      vertex 2.06293 3.25066 1.5
    endloop
  endfacet
  facet normal 0 0 1
    outer loop
      vertex 1.8541 5.70634 1.5
      vertex 1.18972 3.66157 1.5
      vertex 1.63925 3.48358 1.5
    endloop
  endfacet
  facet normal 0 0 1
    outer loop
      vertex 1.12429 5.89372 1.5
      vertex 1.18972 3.66157 1.5
      vertex 1.8541 5.70634 1.5
    endloop
  endfacet
  facet normal 0 0 1
    outer loop
      vertex 1.12429 5.89372 1.5
      vertex 0.721417 3.78181 1.5
      vertex 1.18972 3.66157 1.5
    endloop
  endfacet
  facet normal 0 0 1
    outer loop
      vertex 0.376742 5.98816 1.5
      vertex 0.721417 3.78181 1.5
      vertex 1.12429 5.89372 1.5
    endloop
  endfacet
  facet normal 0 0 1
    outer loop
      vertex 0.376742 5.98816 1.5
      vertex 0.241743 3.8424 1.5
      vertex 0.721417 3.78181 1.5
    endloop
  endfacet
  facet normal 0 0 1
    outer loop
      vertex 0.376742 5.98816 1.5
      vertex -0.241743 3.8424 1.5
      vertex 0.241743 3.8424 1.5
    endloop
  endfacet
  facet normal -0 0 1
    outer loop
      vertex -0.376742 5.98816 1.5
      vertex -0.241743 3.8424 1.5
      vertex 0.376742 5.98816 1.5
    endloop
  endfacet
  facet normal 0 0 1
    outer loop
      vertex -0.376742 5.98816 1.5
      vertex -0.721417 3.78181 1.5
      vertex -0.241743 3.8424 1.5
    endloop
  endfacet
  facet normal -0 0 1
    outer loop
      vertex -1.12429 5.89372 1.5
      vertex -0.721417 3.78181 1.5
      vertex -0.376742 5.98816 1.5
    endloop
  endfacet
  facet normal 0 0 1
    outer loop
      vertex -1.12429 5.89372 1.5
      vertex -1.18972 3.66157 1.5
      vertex -0.721417 3.78181 1.5
    endloop
  endfacet
  facet normal -0 0 1
    outer loop
      vertex -1.8541 5.70634 1.5
      vertex -1.18972 3.66157 1.5
      vertex -1.12429 5.89372 1.5
    endloop
  endfacet
  facet normal 0 0 1
    outer loop
      vertex -1.18972 3.66157 1.5
      vertex -1.8541 5.70634 1.5
      vertex -1.63925 3.48358 1.5
    endloop
  endfacet
  facet normal -0 0 1
    outer loop
      vertex -2.55468 5.42896 1.5
      vertex -1.63925 3.48358 1.5
      vertex -1.8541 5.70634 1.5
    endloop
  endfacet
  facet normal 0 0 1
    outer loop
      vertex -1.63925 3.48358 1.5
      vertex -2.55468 5.42896 1.5
      vertex -2.06293 3.25066 1.5
    endloop
  endfacet
  facet normal -0 0 1
    outer loop
      vertex -3.21496 5.06597 1.5
      vertex -2.06293 3.25066 1.5
      vertex -2.55468 5.42896 1.5
    endloop
  endfacet
  facet normal 0 0 1
    outer loop
      vertex -2.06293 3.25066 1.5
      vertex -3.21496 5.06597 1.5
      vertex -2.45408 2.96648 1.5
    endloop
  endfacet
  facet normal -0 0 1
    outer loop
      vertex -3.82454 4.62308 1.5
      vertex -2.45408 2.96648 1.5
      vertex -3.21496 5.06597 1.5
    endloop
  endfacet
  facet normal 0 0 1
    outer loop
      vertex -2.45408 2.96648 1.5
      vertex -3.82454 4.62308 1.5
      vertex -2.80653 2.63551 1.5
    endloop
  endfacet
  facet normal -0 0 1
    outer loop
      vertex -4.37381 4.10728 1.5
      vertex -2.80653 2.63551 1.5
      vertex -3.82454 4.62308 1.5
    endloop
  endfacet
  facet normal 0 0 1
    outer loop
      vertex -2.80653 2.63551 1.5
      vertex -4.37381 4.10728 1.5
      vertex -3.11471 2.26297 1.5
    endloop
  endfacet
  facet normal -0 0 1
    outer loop
      vertex -4.8541 3.52671 1.5
      vertex -3.11471 2.26297 1.5
      vertex -4.37381 4.10728 1.5
    endloop
  endfacet
  facet normal 0 0 1
    outer loop
      vertex -3.11471 2.26297 1.5
      vertex -4.8541 3.52671 1.5
      vertex -3.37378 1.85475 1.5
    endloop
  endfacet
  facet normal -0 0 1
    outer loop
      vertex -5.25784 2.89052 1.5
      vertex -3.37378 1.85475 1.5
      vertex -4.8541 3.52671 1.5
    endloop
  endfacet
  facet normal 0 0 1
    outer loop
      vertex -3.37378 1.85475 1.5
      vertex -5.25784 2.89052 1.5
      vertex -3.57964 1.41728 1.5
    endloop
  endfacet
  facet normal -0 0 1
    outer loop
      vertex -5.57866 2.20875 1.5
      vertex -3.57964 1.41728 1.5
      vertex -5.25784 2.89052 1.5
    endloop
  endfacet
  facet normal 0 0 1
    outer loop
      vertex 5.57866 -2.20875 1.5
      vertex 3.57964 -1.41728 1.5
      vertex 5.25784 -2.89052 1.5
    endloop
  endfacet
  facet normal -0 0 1
    outer loop
      vertex 3.37378 -1.85475 1.5
      vertex 5.25784 -2.89052 1.5
      vertex 3.57964 -1.41728 1.5
    endloop
  endfacet
  facet normal 0 0 1
    outer loop
      vertex 5.25784 -2.89052 1.5
      vertex 3.37378 -1.85475 1.5
      vertex 4.8541 -3.52671 1.5
    endloop
  endfacet
  facet normal -0 0 1
    outer loop
      vertex 3.11471 -2.26297 1.5
      vertex 4.8541 -3.52671 1.5
      vertex 3.37378 -1.85475 1.5
    endloop
  endfacet
  facet normal 0 0 1
    outer loop
      vertex 4.8541 -3.52671 1.5
      vertex 3.11471 -2.26297 1.5
      vertex 4.37381 -4.10728 1.5
    endloop
  endfacet
  facet normal -0 0 1
    outer loop
      vertex 2.80653 -2.63551 1.5
      vertex 4.37381 -4.10728 1.5
      vertex 3.11471 -2.26297 1.5
    endloop
  endfacet
  facet normal 0 0 1
    outer loop
      vertex 4.37381 -4.10728 1.5
      vertex 2.80653 -2.63551 1.5
      vertex 3.82454 -4.62308 1.5
    endloop
  endfacet
  facet normal -0 0 1
    outer loop
      vertex 2.45408 -2.96648 1.5
      vertex 3.82454 -4.62308 1.5
      vertex 2.80653 -2.63551 1.5
    endloop
  endfacet
  facet normal 0 0 1
    outer loop
      vertex 3.82454 -4.62308 1.5
      vertex 2.45408 -2.96648 1.5
      vertex 3.21496 -5.06597 1.5
    endloop
  endfacet
  facet normal -0 0 1
    outer loop
      vertex 2.06293 -3.25066 1.5
      vertex 3.21496 -5.06597 1.5
      vertex 2.45408 -2.96648 1.5
    endloop
  endfacet
  facet normal 0 0 1
    outer loop
      vertex 3.21496 -5.06597 1.5
      vertex 2.06293 -3.25066 1.5
      vertex 2.55468 -5.42896 1.5
    endloop
  endfacet
  facet normal -0 0 1
    outer loop
      vertex 1.63925 -3.48358 1.5
      vertex 2.55468 -5.42896 1.5
      vertex 2.06293 -3.25066 1.5
    endloop
  endfacet
  facet normal 0 0 1
    outer loop
      vertex 2.55468 -5.42896 1.5
      vertex 1.63925 -3.48358 1.5
      vertex 1.8541 -5.70634 1.5
    endloop
  endfacet
  facet normal -0 0 1
    outer loop
      vertex 1.18972 -3.66157 1.5
      vertex 1.8541 -5.70634 1.5
      vertex 1.63925 -3.48358 1.5
    endloop
  endfacet
  facet normal 0 0 1
    outer loop
      vertex 1.18972 -3.66157 1.5
      vertex 1.12429 -5.89372 1.5
      vertex 1.8541 -5.70634 1.5
    endloop
  endfacet
  facet normal -0 0 1
    outer loop
      vertex 0.721417 -3.78181 1.5
      vertex 1.12429 -5.89372 1.5
      vertex 1.18972 -3.66157 1.5
    endloop
  endfacet
  facet normal 0 0 1
    outer loop
      vertex 0.721417 -3.78181 1.5
      vertex 0.376742 -5.98816 1.5
      vertex 1.12429 -5.89372 1.5
    endloop
  endfacet
  facet normal -0 0 1
    outer loop
      vertex 0.241743 -3.8424 1.5
      vertex 0.376742 -5.98816 1.5
      vertex 0.721417 -3.78181 1.5
    endloop
  endfacet
  facet normal -0 0 1
    outer loop
      vertex -0.241743 -3.8424 1.5
      vertex 0.376742 -5.98816 1.5
      vertex 0.241743 -3.8424 1.5
    endloop
  endfacet
  facet normal 0 0 1
    outer loop
      vertex -0.241743 -3.8424 1.5
      vertex -0.376742 -5.98816 1.5
      vertex 0.376742 -5.98816 1.5
    endloop
  endfacet
  facet normal 0 0 1
    outer loop
      vertex -0.721417 -3.78181 1.5
      vertex -0.376742 -5.98816 1.5
      vertex -0.241743 -3.8424 1.5
    endloop
  endfacet
  facet normal 0 0 1
    outer loop
      vertex -0.721417 -3.78181 1.5
      vertex -1.12429 -5.89372 1.5
      vertex -0.376742 -5.98816 1.5
    endloop
  endfacet
  facet normal 0 0 1
    outer loop
      vertex -1.18972 -3.66157 1.5
      vertex -1.12429 -5.89372 1.5
      vertex -0.721417 -3.78181 1.5
    endloop
  endfacet
  facet normal 0 0 1
    outer loop
      vertex -1.8541 -5.70634 1.5
      vertex -1.18972 -3.66157 1.5
      vertex -1.63925 -3.48358 1.5
    endloop
  endfacet
  facet normal 0 0 1
    outer loop
      vertex -1.18972 -3.66157 1.5
      vertex -1.8541 -5.70634 1.5
      vertex -1.12429 -5.89372 1.5
    endloop
  endfacet
  facet normal 0 0 1
    outer loop
      vertex -2.55468 -5.42896 1.5
      vertex -1.63925 -3.48358 1.5
      vertex -2.06293 -3.25066 1.5
    endloop
  endfacet
  facet normal 0 0 1
    outer loop
      vertex -3.21496 -5.06597 1.5
      vertex -2.06293 -3.25066 1.5
      vertex -2.45408 -2.96648 1.5
    endloop
  endfacet
  facet normal 0 0 1
    outer loop
      vertex -1.63925 -3.48358 1.5
      vertex -2.55468 -5.42896 1.5
      vertex -1.8541 -5.70634 1.5
    endloop
  endfacet
  facet normal 0 0 1
    outer loop
      vertex -3.82454 -4.62308 1.5
      vertex -2.45408 -2.96648 1.5
      vertex -2.80653 -2.63551 1.5
    endloop
  endfacet
  facet normal 0 0 1
    outer loop
      vertex -4.37381 -4.10728 1.5
      vertex -2.80653 -2.63551 1.5
      vertex -3.11471 -2.26297 1.5
    endloop
  endfacet
  facet normal 0 0 1
    outer loop
      vertex -2.06293 -3.25066 1.5
      vertex -3.21496 -5.06597 1.5
      vertex -2.55468 -5.42896 1.5
    endloop
  endfacet
  facet normal 0 0 1
    outer loop
      vertex -4.8541 -3.52671 1.5
      vertex -3.11471 -2.26297 1.5
      vertex -3.37378 -1.85475 1.5
    endloop
  endfacet
  facet normal 0 0 1
    outer loop
      vertex -5.25784 -2.89052 1.5
      vertex -3.37378 -1.85475 1.5
      vertex -3.57964 -1.41728 1.5
    endloop
  endfacet
  facet normal 0 0 1
    outer loop
      vertex -5.57866 -2.20875 1.5
      vertex -3.57964 -1.41728 1.5
      vertex -3.72904 -0.957456 1.5
    endloop
  endfacet
  facet normal 0 0 1
    outer loop
      vertex -5.8115 -1.49214 1.5
      vertex -3.72904 -0.957456 1.5
      vertex -3.81964 -0.482533 1.5
    endloop
  endfacet
  facet normal 0 0 1
    outer loop
      vertex -2.45408 -2.96648 1.5
      vertex -3.82454 -4.62308 1.5
      vertex -3.21496 -5.06597 1.5
    endloop
  endfacet
  facet normal 0 0 1
    outer loop
      vertex -5.95269 -0.751999 1.5
      vertex -3.81964 -0.482533 1.5
      vertex -3.85 0 1.5
    endloop
  endfacet
  facet normal 0 0 1
    outer loop
      vertex -3.57964 1.41728 1.5
      vertex -5.57866 2.20875 1.5
      vertex -3.72904 0.957456 1.5
    endloop
  endfacet
  facet normal 0 0 1
    outer loop
      vertex -2.80653 -2.63551 1.5
      vertex -4.37381 -4.10728 1.5
      vertex -3.82454 -4.62308 1.5
    endloop
  endfacet
  facet normal -0 0 1
    outer loop
      vertex -5.8115 1.49214 1.5
      vertex -3.72904 0.957456 1.5
      vertex -5.57866 2.20875 1.5
    endloop
  endfacet
  facet normal 0 0 1
    outer loop
      vertex -3.11471 -2.26297 1.5
      vertex -4.8541 -3.52671 1.5
      vertex -4.37381 -4.10728 1.5
    endloop
  endfacet
  facet normal 0 0 1
    outer loop
      vertex -3.72904 0.957456 1.5
      vertex -5.8115 1.49214 1.5
      vertex -3.81964 0.482533 1.5
    endloop
  endfacet
  facet normal 0 0 1
    outer loop
      vertex -3.37378 -1.85475 1.5
      vertex -5.25784 -2.89052 1.5
      vertex -4.8541 -3.52671 1.5
    endloop
  endfacet
  facet normal -0 0 1
    outer loop
      vertex -5.95269 0.751999 1.5
      vertex -3.81964 0.482533 1.5
      vertex -5.8115 1.49214 1.5
    endloop
  endfacet
  facet normal 0 0 1
    outer loop
      vertex -3.57964 -1.41728 1.5
      vertex -5.57866 -2.20875 1.5
      vertex -5.25784 -2.89052 1.5
    endloop
  endfacet
  facet normal 0 0 1
    outer loop
      vertex -3.81964 0.482533 1.5
      vertex -5.95269 0.751999 1.5
      vertex -3.85 0 1.5
    endloop
  endfacet
  facet normal 0 0 1
    outer loop
      vertex -3.72904 -0.957456 1.5
      vertex -5.8115 -1.49214 1.5
      vertex -5.57866 -2.20875 1.5
    endloop
  endfacet
  facet normal 0 0 1
    outer loop
      vertex -6 0 1.5
      vertex -3.85 0 1.5
      vertex -5.95269 0.751999 1.5
    endloop
  endfacet
  facet normal 0 0 1
    outer loop
      vertex -3.81964 -0.482533 1.5
      vertex -5.95269 -0.751999 1.5
      vertex -5.8115 -1.49214 1.5
    endloop
  endfacet
  facet normal 0 0 1
    outer loop
      vertex -3.85 0 1.5
      vertex -6 0 1.5
      vertex -5.95269 -0.751999 1.5
    endloop
  endfacet
  facet normal -0.481754 0.876306 0
    outer loop
      vertex -2.55468 5.42896 0
      vertex -3.21496 5.06597 1.5
      vertex -2.55468 5.42896 1.5
    endloop
  endfacet
  facet normal -0.481754 0.876306 0
    outer loop
      vertex -3.21496 5.06597 1.5
      vertex -2.55468 5.42896 0
      vertex -3.21496 5.06597 0
    endloop
  endfacet
  facet normal -0.587785 0.809017 0
    outer loop
      vertex -3.21496 5.06597 0
      vertex -3.82454 4.62308 1.5
      vertex -3.21496 5.06597 1.5
    endloop
  endfacet
  facet normal -0.587785 0.809017 0
    outer loop
      vertex -3.82454 4.62308 1.5
      vertex -3.21496 5.06597 0
      vertex -3.82454 4.62308 0
    endloop
  endfacet
  facet normal -0.24869 0.968583 0
    outer loop
      vertex -1.12429 5.89372 0
      vertex -1.8541 5.70634 1.5
      vertex -1.12429 5.89372 1.5
    endloop
  endfacet
  facet normal -0.24869 0.968583 0
    outer loop
      vertex -1.8541 5.70634 1.5
      vertex -1.12429 5.89372 0
      vertex -1.8541 5.70634 0
    endloop
  endfacet
  facet normal 0.684547 -0.728969 0
    outer loop
      vertex 3.82454 -4.62308 0
      vertex 4.37381 -4.10728 1.5
      vertex 3.82454 -4.62308 1.5
    endloop
  endfacet
  facet normal 0.684547 -0.728969 0
    outer loop
      vertex 4.37381 -4.10728 1.5
      vertex 3.82454 -4.62308 0
      vertex 4.37381 -4.10728 0
    endloop
  endfacet
  facet normal 0.982287 -0.187381 0
    outer loop
      vertex 5.8115 -1.49214 1.5
      vertex 5.95269 -0.751999 0
      vertex 5.95269 -0.751999 1.5
    endloop
  endfacet
  facet normal 0.982287 -0.187381 0
    outer loop
      vertex 5.95269 -0.751999 0
      vertex 5.8115 -1.49214 1.5
      vertex 5.8115 -1.49214 0
    endloop
  endfacet
  facet normal -0.684547 -0.728969 0
    outer loop
      vertex -4.37381 -4.10728 0
      vertex -3.82454 -4.62308 1.5
      vertex -4.37381 -4.10728 1.5
    endloop
  endfacet
  facet normal -0.684547 -0.728969 -0
    outer loop
      vertex -3.82454 -4.62308 1.5
      vertex -4.37381 -4.10728 0
      vertex -3.82454 -4.62308 0
    endloop
  endfacet
  facet normal -0.904827 -0.425779 0
    outer loop
      vertex -5.25784 -2.89052 0
      vertex -5.57866 -2.20875 1.5
      vertex -5.57866 -2.20875 0
    endloop
  endfacet
  facet normal -0.904827 -0.425779 0
    outer loop
      vertex -5.57866 -2.20875 1.5
      vertex -5.25784 -2.89052 0
      vertex -5.25784 -2.89052 1.5
    endloop
  endfacet
  facet normal -0.844328 -0.535827 0
    outer loop
      vertex -4.8541 -3.52671 0
      vertex -5.25784 -2.89052 1.5
      vertex -5.25784 -2.89052 0
    endloop
  endfacet
  facet normal -0.844328 -0.535827 0
    outer loop
      vertex -5.25784 -2.89052 1.5
      vertex -4.8541 -3.52671 0
      vertex -4.8541 -3.52671 1.5
    endloop
  endfacet
  facet normal 0 0 -1
    outer loop
      vertex 5.95269 -0.751999 0
      vertex 5.95269 0.751999 0
      vertex 6 0 0
    endloop
  endfacet
  facet normal 0 0 -1
    outer loop
      vertex 5.8115 -1.49214 0
      vertex 5.95269 0.751999 0
      vertex 5.95269 -0.751999 0
    endloop
  endfacet
  facet normal 0 0 -1
    outer loop
      vertex 5.8115 -1.49214 0
      vertex 5.8115 1.49214 0
      vertex 5.95269 0.751999 0
    endloop
  endfacet
  facet normal 0 0 -1
    outer loop
      vertex 5.57866 -2.20875 0
      vertex 5.8115 1.49214 0
      vertex 5.8115 -1.49214 0
    endloop
  endfacet
  facet normal 0 0 -1
    outer loop
      vertex 5.57866 -2.20875 0
      vertex 5.57866 2.20875 0
      vertex 5.8115 1.49214 0
    endloop
  endfacet
  facet normal 0 0 -1
    outer loop
      vertex 5.25784 -2.89052 0
      vertex 5.57866 2.20875 0
      vertex 5.57866 -2.20875 0
    endloop
  endfacet
  facet normal 0 0 -1
    outer loop
      vertex 5.25784 -2.89052 0
      vertex 5.25784 2.89052 0
      vertex 5.57866 2.20875 0
    endloop
  endfacet
  facet normal 0 0 -1
    outer loop
      vertex 4.8541 -3.52671 0
      vertex 5.25784 2.89052 0
      vertex 5.25784 -2.89052 0
    endloop
  endfacet
  facet normal 0 0 -1
    outer loop
      vertex 4.8541 -3.52671 0
      vertex 4.8541 3.52671 0
      vertex 5.25784 2.89052 0
    endloop
  endfacet
  facet normal 0 0 -1
    outer loop
      vertex 4.37381 -4.10728 0
      vertex 4.8541 3.52671 0
      vertex 4.8541 -3.52671 0
    endloop
  endfacet
  facet normal 0 0 -1
    outer loop
      vertex 4.37381 -4.10728 0
      vertex 4.37381 4.10728 0
      vertex 4.8541 3.52671 0
    endloop
  endfacet
  facet normal 0 0 -1
    outer loop
      vertex 3.82454 -4.62308 0
      vertex 4.37381 4.10728 0
      vertex 4.37381 -4.10728 0
    endloop
  endfacet
  facet normal 0 0 -1
    outer loop
      vertex 3.82454 -4.62308 0
      vertex 3.82454 4.62308 0
      vertex 4.37381 4.10728 0
    endloop
  endfacet
  facet normal 0 0 -1
    outer loop
      vertex 3.21496 -5.06597 0
      vertex 3.82454 4.62308 0
      vertex 3.82454 -4.62308 0
    endloop
  endfacet
  facet normal 0 0 -1
    outer loop
      vertex 3.21496 -5.06597 0
      vertex 3.21496 5.06597 0
      vertex 3.82454 4.62308 0
    endloop
  endfacet
  facet normal 0 0 -1
    outer loop
      vertex 2.55468 -5.42896 0
      vertex 3.21496 5.06597 0
      vertex 3.21496 -5.06597 0
    endloop
  endfacet
  facet normal 0 0 -1
    outer loop
      vertex 2.55468 -5.42896 0
      vertex 2.55468 5.42896 0
      vertex 3.21496 5.06597 0
    endloop
  endfacet
  facet normal 0 0 -1
    outer loop
      vertex 1.8541 -5.70634 0
      vertex 2.55468 5.42896 0
      vertex 2.55468 -5.42896 0
    endloop
  endfacet
  facet normal 0 0 -1
    outer loop
      vertex 1.8541 -5.70634 0
      vertex 1.8541 5.70634 0
      vertex 2.55468 5.42896 0
    endloop
  endfacet
  facet normal 0 0 -1
    outer loop
      vertex 1.12429 -5.89372 0
      vertex 1.8541 5.70634 0
      vertex 1.8541 -5.70634 0
    endloop
  endfacet
  facet normal 0 0 -1
    outer loop
      vertex 1.12429 -5.89372 0
      vertex 1.12429 5.89372 0
      vertex 1.8541 5.70634 0
    endloop
  endfacet
  facet normal 0 0 -1
    outer loop
      vertex 0.376742 -5.98816 0
      vertex 1.12429 5.89372 0
      vertex 1.12429 -5.89372 0
    endloop
  endfacet
  facet normal 0 0 -1
    outer loop
      vertex 0.376742 -5.98816 0
      vertex 0.376742 5.98816 0
      vertex 1.12429 5.89372 0
    endloop
  endfacet
  facet normal 0 0 -1
    outer loop
      vertex -0.376742 -5.98816 0
      vertex 0.376742 5.98816 0
      vertex 0.376742 -5.98816 0
    endloop
  endfacet
  facet normal 0 0 -1
    outer loop
      vertex -0.376742 -5.98816 0
      vertex -0.376742 5.98816 0
      vertex 0.376742 5.98816 0
    endloop
  endfacet
  facet normal 0 0 -1
    outer loop
      vertex -1.12429 -5.89372 0
      vertex -0.376742 5.98816 0
      vertex -0.376742 -5.98816 0
    endloop
  endfacet
  facet normal 0 0 -1
    outer loop
      vertex -1.12429 -5.89372 0
      vertex -1.12429 5.89372 0
      vertex -0.376742 5.98816 0
    endloop
  endfacet
  facet normal 0 0 -1
    outer loop
      vertex -1.8541 -5.70634 0
      vertex -1.12429 5.89372 0
      vertex -1.12429 -5.89372 0
    endloop
  endfacet
  facet normal 0 0 -1
    outer loop
      vertex -1.8541 -5.70634 0
      vertex -1.8541 5.70634 0
      vertex -1.12429 5.89372 0
    endloop
  endfacet
  facet normal 0 0 -1
    outer loop
      vertex -2.55468 -5.42896 0
      vertex -1.8541 5.70634 0
      vertex -1.8541 -5.70634 0
    endloop
  endfacet
  facet normal 0 0 -1
    outer loop
      vertex -2.55468 -5.42896 0
      vertex -2.55468 5.42896 0
      vertex -1.8541 5.70634 0
    endloop
  endfacet
  facet normal 0 0 -1
    outer loop
      vertex -3.21496 -5.06597 0
      vertex -2.55468 5.42896 0
      vertex -2.55468 -5.42896 0
    endloop
  endfacet
  facet normal 0 0 -1
    outer loop
      vertex -3.21496 -5.06597 0
      vertex -3.21496 5.06597 0
      vertex -2.55468 5.42896 0
    endloop
  endfacet
  facet normal 0 0 -1
    outer loop
      vertex -3.82454 -4.62308 0
      vertex -3.21496 5.06597 0
      vertex -3.21496 -5.06597 0
    endloop
  endfacet
  facet normal 0 0 -1
    outer loop
      vertex -3.82454 -4.62308 0
      vertex -3.82454 4.62308 0
      vertex -3.21496 5.06597 0
    endloop
  endfacet
  facet normal 0 0 -1
    outer loop
      vertex -4.37381 -4.10728 0
      vertex -3.82454 4.62308 0
      vertex -3.82454 -4.62308 0
    endloop
  endfacet
  facet normal 0 0 -1
    outer loop
      vertex -4.37381 -4.10728 0
      vertex -4.37381 4.10728 0
      vertex -3.82454 4.62308 0
    endloop
  endfacet
  facet normal 0 0 -1
    outer loop
      vertex -4.8541 -3.52671 0
      vertex -4.37381 4.10728 0
      vertex -4.37381 -4.10728 0
    endloop
  endfacet
  facet normal 0 0 -1
    outer loop
      vertex -4.8541 -3.52671 0
      vertex -4.8541 3.52671 0
      vertex -4.37381 4.10728 0
    endloop
  endfacet
  facet normal 0 0 -1
    outer loop
      vertex -5.25784 -2.89052 0
      vertex -4.8541 3.52671 0
      vertex -4.8541 -3.52671 0
    endloop
  endfacet
  facet normal 0 0 -1
    outer loop
      vertex -5.25784 -2.89052 0
      vertex -5.25784 2.89052 0
      vertex -4.8541 3.52671 0
    endloop
  endfacet
  facet normal 0 0 -1
    outer loop
      vertex -5.57866 -2.20875 0
      vertex -5.25784 2.89052 0
      vertex -5.25784 -2.89052 0
    endloop
  endfacet
  facet normal 0 0 -1
    outer loop
      vertex -5.57866 -2.20875 0
      vertex -5.57866 2.20875 0
      vertex -5.25784 2.89052 0
    endloop
  endfacet
  facet normal 0 0 -1
    outer loop
      vertex -5.8115 -1.49214 0
      vertex -5.57866 2.20875 0
      vertex -5.57866 -2.20875 0
    endloop
  endfacet
  facet normal 0 0 -1
    outer loop
      vertex -5.8115 -1.49214 0
      vertex -5.8115 1.49214 0
      vertex -5.57866 2.20875 0
    endloop
  endfacet
  facet normal 0 0 -1
    outer loop
      vertex -5.95269 -0.751999 0
      vertex -5.8115 1.49214 0
      vertex -5.8115 -1.49214 0
    endloop
  endfacet
  facet normal 0 0 -1
    outer loop
      vertex -5.95269 -0.751999 0
      vertex -5.95269 0.751999 0
      vertex -5.8115 1.49214 0
    endloop
  endfacet
  facet normal 0 -0 -1
    outer loop
      vertex -5.95269 0.751999 0
      vertex -5.95269 -0.751999 0
      vertex -6 0 0
    endloop
  endfacet
  facet normal 0.904827 -0.425779 0
    outer loop
      vertex 5.25784 -2.89052 1.5
      vertex 5.57866 -2.20875 0
      vertex 5.57866 -2.20875 1.5
    endloop
  endfacet
  facet normal 0.904827 -0.425779 0
    outer loop
      vertex 5.57866 -2.20875 0
      vertex 5.25784 -2.89052 1.5
      vertex 5.25784 -2.89052 0
    endloop
  endfacet
  facet normal 0.770513 -0.637424 0
    outer loop
      vertex 4.37381 -4.10728 1.5
      vertex 4.8541 -3.52671 0
      vertex 4.8541 -3.52671 1.5
    endloop
  endfacet
  facet normal 0.770513 -0.637424 0
    outer loop
      vertex 4.8541 -3.52671 0
      vertex 4.37381 -4.10728 1.5
      vertex 4.37381 -4.10728 0
    endloop
  endfacet
  facet normal 0.998027 -0.0627918 0
    outer loop
      vertex 5.95269 -0.751999 1.5
      vertex 6 0 0
      vertex 6 0 1.5
    endloop
  endfacet
  facet normal 0.998027 -0.0627918 0
    outer loop
      vertex 6 0 0
      vertex 5.95269 -0.751999 1.5
      vertex 5.95269 -0.751999 0
    endloop
  endfacet
  facet normal -0.770513 -0.637424 0
    outer loop
      vertex -4.37381 -4.10728 0
      vertex -4.8541 -3.52671 1.5
      vertex -4.8541 -3.52671 0
    endloop
  endfacet
  facet normal -0.770513 -0.637424 0
    outer loop
      vertex -4.8541 -3.52671 1.5
      vertex -4.37381 -4.10728 0
      vertex -4.37381 -4.10728 1.5
    endloop
  endfacet
  facet normal -0.951056 -0.309018 0
    outer loop
      vertex -5.57866 -2.20875 0
      vertex -5.8115 -1.49214 1.5
      vertex -5.8115 -1.49214 0
    endloop
  endfacet
  facet normal -0.951056 -0.309018 0
    outer loop
      vertex -5.8115 -1.49214 1.5
      vertex -5.57866 -2.20875 0
      vertex -5.57866 -2.20875 1.5
    endloop
  endfacet
  facet normal -0.998027 -0.0627918 0
    outer loop
      vertex -5.95269 -0.751999 0
      vertex -6 0 1.5
      vertex -6 0 0
    endloop
  endfacet
  facet normal -0.998027 -0.0627918 0
    outer loop
      vertex -6 0 1.5
      vertex -5.95269 -0.751999 0
      vertex -5.95269 -0.751999 1.5
    endloop
  endfacet
  facet normal 0.24869 -0.968583 0
    outer loop
      vertex 1.12429 -5.89372 0
      vertex 1.8541 -5.70634 1.5
      vertex 1.12429 -5.89372 1.5
    endloop
  endfacet
  facet normal 0.24869 -0.968583 0
    outer loop
      vertex 1.8541 -5.70634 1.5
      vertex 1.12429 -5.89372 0
      vertex 1.8541 -5.70634 0
    endloop
  endfacet
  facet normal 0.587785 -0.809017 0
    outer loop
      vertex 3.21496 -5.06597 0
      vertex 3.82454 -4.62308 1.5
      vertex 3.21496 -5.06597 1.5
    endloop
  endfacet
  facet normal 0.587785 -0.809017 0
    outer loop
      vertex 3.82454 -4.62308 1.5
      vertex 3.21496 -5.06597 0
      vertex 3.82454 -4.62308 0
    endloop
  endfacet
  facet normal 0.481754 -0.876306 0
    outer loop
      vertex 2.55468 -5.42896 0
      vertex 3.21496 -5.06597 1.5
      vertex 2.55468 -5.42896 1.5
    endloop
  endfacet
  facet normal 0.481754 -0.876306 0
    outer loop
      vertex 3.21496 -5.06597 1.5
      vertex 2.55468 -5.42896 0
      vertex 3.21496 -5.06597 0
    endloop
  endfacet
  facet normal 0.951056 -0.309018 0
    outer loop
      vertex 5.57866 -2.20875 1.5
      vertex 5.8115 -1.49214 0
      vertex 5.8115 -1.49214 1.5
    endloop
  endfacet
  facet normal 0.951056 -0.309018 0
    outer loop
      vertex 5.8115 -1.49214 0
      vertex 5.57866 -2.20875 1.5
      vertex 5.57866 -2.20875 0
    endloop
  endfacet
  facet normal 0.844328 -0.535827 0
    outer loop
      vertex 4.8541 -3.52671 1.5
      vertex 5.25784 -2.89052 0
      vertex 5.25784 -2.89052 1.5
    endloop
  endfacet
  facet normal 0.844328 -0.535827 0
    outer loop
      vertex 5.25784 -2.89052 0
      vertex 4.8541 -3.52671 1.5
      vertex 4.8541 -3.52671 0
    endloop
  endfacet
  facet normal -0.368125 -0.929776 0
    outer loop
      vertex -2.55468 -5.42896 0
      vertex -1.8541 -5.70634 1.5
      vertex -2.55468 -5.42896 1.5
    endloop
  endfacet
  facet normal -0.368125 -0.929776 -0
    outer loop
      vertex -1.8541 -5.70634 1.5
      vertex -2.55468 -5.42896 0
      vertex -1.8541 -5.70634 0
    endloop
  endfacet
  facet normal -0.24869 -0.968583 0
    outer loop
      vertex -1.8541 -5.70634 0
      vertex -1.12429 -5.89372 1.5
      vertex -1.8541 -5.70634 1.5
    endloop
  endfacet
  facet normal -0.24869 -0.968583 -0
    outer loop
      vertex -1.12429 -5.89372 1.5
      vertex -1.8541 -5.70634 0
      vertex -1.12429 -5.89372 0
    endloop
  endfacet
  facet normal -0.982287 -0.187381 0
    outer loop
      vertex -5.8115 -1.49214 0
      vertex -5.95269 -0.751999 1.5
      vertex -5.95269 -0.751999 0
    endloop
  endfacet
  facet normal -0.982287 -0.187381 0
    outer loop
      vertex -5.95269 -0.751999 1.5
      vertex -5.8115 -1.49214 0
      vertex -5.8115 -1.49214 1.5
    endloop
  endfacet
  facet normal -0.125333 -0.992115 0
    outer loop
      vertex -1.12429 -5.89372 0
      vertex -0.376742 -5.98816 1.5
      vertex -1.12429 -5.89372 1.5
    endloop
  endfacet
  facet normal -0.125333 -0.992115 -0
    outer loop
      vertex -0.376742 -5.98816 1.5
      vertex -1.12429 -5.89372 0
      vertex -0.376742 -5.98816 0
    endloop
  endfacet
  facet normal -0.481754 -0.876306 0
    outer loop
      vertex -3.21496 -5.06597 0
      vertex -2.55468 -5.42896 1.5
      vertex -3.21496 -5.06597 1.5
    endloop
  endfacet
  facet normal -0.481754 -0.876306 -0
    outer loop
      vertex -2.55468 -5.42896 1.5
      vertex -3.21496 -5.06597 0
      vertex -2.55468 -5.42896 0
    endloop
  endfacet
  facet normal -0.587785 -0.809017 0
    outer loop
      vertex -3.82454 -4.62308 0
      vertex -3.21496 -5.06597 1.5
      vertex -3.82454 -4.62308 1.5
    endloop
  endfacet
  facet normal -0.587785 -0.809017 -0
    outer loop
      vertex -3.21496 -5.06597 1.5
      vertex -3.82454 -4.62308 0
      vertex -3.21496 -5.06597 0
    endloop
  endfacet
  facet normal 0.904827 0.42578 0
    outer loop
      vertex 3.57964 1.41728 14.25
      vertex 3.37378 1.85475 1.5
      vertex 3.37378 1.85475 14.25
    endloop
  endfacet
  facet normal 0.904827 0.42578 0
    outer loop
      vertex 3.37378 1.85475 1.5
      vertex 3.57964 1.41728 14.25
      vertex 3.57964 1.41728 1.5
    endloop
  endfacet
  facet normal 0.998027 -0.0627904 0
    outer loop
      vertex 3.81964 -0.482533 14.25
      vertex 3.85 0 1.5
      vertex 3.85 0 14.25
    endloop
  endfacet
  facet normal 0.998027 -0.0627904 0
    outer loop
      vertex 3.85 0 1.5
      vertex 3.81964 -0.482533 14.25
      vertex 3.81964 -0.482533 1.5
    endloop
  endfacet
  facet normal 0.844327 0.535828 0
    outer loop
      vertex 3.37378 1.85475 14.25
      vertex 3.11471 2.26297 1.5
      vertex 3.11471 2.26297 14.25
    endloop
  endfacet
  facet normal 0.844327 0.535828 0
    outer loop
      vertex 3.11471 2.26297 1.5
      vertex 3.37378 1.85475 14.25
      vertex 3.37378 1.85475 1.5
    endloop
  endfacet
  facet normal 0.368125 0.929776 -0
    outer loop
      vertex 1.63925 3.48358 1.5
      vertex 1.18972 3.66157 14.25
      vertex 1.63925 3.48358 14.25
    endloop
  endfacet
  facet normal 0.368125 0.929776 0
    outer loop
      vertex 1.18972 3.66157 14.25
      vertex 1.63925 3.48358 1.5
      vertex 1.18972 3.66157 1.5
    endloop
  endfacet
  facet normal -0.368125 0.929776 0
    outer loop
      vertex -1.18972 3.66157 1.5
      vertex -1.63925 3.48358 14.25
      vertex -1.18972 3.66157 14.25
    endloop
  endfacet
  facet normal -0.368125 0.929776 0
    outer loop
      vertex -1.63925 3.48358 14.25
      vertex -1.18972 3.66157 1.5
      vertex -1.63925 3.48358 1.5
    endloop
  endfacet
  facet normal -0.904827 0.42578 0
    outer loop
      vertex -3.57964 1.41728 1.5
      vertex -3.37378 1.85475 14.25
      vertex -3.37378 1.85475 1.5
    endloop
  endfacet
  facet normal -0.904827 0.42578 0
    outer loop
      vertex -3.37378 1.85475 14.25
      vertex -3.57964 1.41728 1.5
      vertex -3.57964 1.41728 14.25
    endloop
  endfacet
  facet normal 0.684547 0.728969 -0
    outer loop
      vertex 2.80653 2.63551 1.5
      vertex 2.45408 2.96648 14.25
      vertex 2.80653 2.63551 14.25
    endloop
  endfacet
  facet normal 0.684547 0.728969 0
    outer loop
      vertex 2.45408 2.96648 14.25
      vertex 2.80653 2.63551 1.5
      vertex 2.45408 2.96648 1.5
    endloop
  endfacet
  facet normal 0 1 -0
    outer loop
      vertex 0.241743 3.8424 1.5
      vertex -0.241743 3.8424 14.25
      vertex 0.241743 3.8424 14.25
    endloop
  endfacet
  facet normal 0 1 0
    outer loop
      vertex -0.241743 3.8424 14.25
      vertex 0.241743 3.8424 1.5
      vertex -0.241743 3.8424 1.5
    endloop
  endfacet
  facet normal 0.587786 0.809017 -0
    outer loop
      vertex 2.45408 2.96648 1.5
      vertex 2.06293 3.25066 14.25
      vertex 2.45408 2.96648 14.25
    endloop
  endfacet
  facet normal 0.587786 0.809017 0
    outer loop
      vertex 2.06293 3.25066 14.25
      vertex 2.45408 2.96648 1.5
      vertex 2.06293 3.25066 1.5
    endloop
  endfacet
  facet normal -0.770514 0.637424 0
    outer loop
      vertex -3.11471 2.26297 1.5
      vertex -2.80653 2.63551 14.25
      vertex -2.80653 2.63551 1.5
    endloop
  endfacet
  facet normal -0.770514 0.637424 0
    outer loop
      vertex -2.80653 2.63551 14.25
      vertex -3.11471 2.26297 1.5
      vertex -3.11471 2.26297 14.25
    endloop
  endfacet
  facet normal -0.481753 0.876307 0
    outer loop
      vertex -1.63925 3.48358 1.5
      vertex -2.06293 3.25066 14.25
      vertex -1.63925 3.48358 14.25
    endloop
  endfacet
  facet normal -0.481753 0.876307 0
    outer loop
      vertex -2.06293 3.25066 14.25
      vertex -1.63925 3.48358 1.5
      vertex -2.06293 3.25066 1.5
    endloop
  endfacet
  facet normal -0.24869 0.968583 0
    outer loop
      vertex -0.721417 3.78181 1.5
      vertex -1.18972 3.66157 14.25
      vertex -0.721417 3.78181 14.25
    endloop
  endfacet
  facet normal -0.24869 0.968583 0
    outer loop
      vertex -1.18972 3.66157 14.25
      vertex -0.721417 3.78181 1.5
      vertex -1.18972 3.66157 1.5
    endloop
  endfacet
  facet normal -0.684547 -0.728969 0
    outer loop
      vertex -2.80653 -2.63551 1.5
      vertex -2.45408 -2.96648 14.25
      vertex -2.80653 -2.63551 14.25
    endloop
  endfacet
  facet normal -0.684547 -0.728969 -0
    outer loop
      vertex -2.45408 -2.96648 14.25
      vertex -2.80653 -2.63551 1.5
      vertex -2.45408 -2.96648 1.5
    endloop
  endfacet
  facet normal -0.904827 -0.42578 0
    outer loop
      vertex -3.37378 -1.85475 1.5
      vertex -3.57964 -1.41728 14.25
      vertex -3.57964 -1.41728 1.5
    endloop
  endfacet
  facet normal -0.904827 -0.42578 0
    outer loop
      vertex -3.57964 -1.41728 14.25
      vertex -3.37378 -1.85475 1.5
      vertex -3.37378 -1.85475 14.25
    endloop
  endfacet
  facet normal 0.904827 -0.42578 0
    outer loop
      vertex 3.37378 -1.85475 14.25
      vertex 3.57964 -1.41728 1.5
      vertex 3.57964 -1.41728 14.25
    endloop
  endfacet
  facet normal 0.904827 -0.42578 0
    outer loop
      vertex 3.57964 -1.41728 1.5
      vertex 3.37378 -1.85475 14.25
      vertex 3.37378 -1.85475 1.5
    endloop
  endfacet
  facet normal 0.481753 -0.876307 0
    outer loop
      vertex 1.63925 -3.48358 1.5
      vertex 2.06293 -3.25066 14.25
      vertex 1.63925 -3.48358 14.25
    endloop
  endfacet
  facet normal 0.481753 -0.876307 0
    outer loop
      vertex 2.06293 -3.25066 14.25
      vertex 1.63925 -3.48358 1.5
      vertex 2.06293 -3.25066 1.5
    endloop
  endfacet
  facet normal 0.982287 0.187381 0
    outer loop
      vertex 3.81964 0.482533 14.25
      vertex 3.72904 0.957456 1.5
      vertex 3.72904 0.957456 14.25
    endloop
  endfacet
  facet normal 0.982287 0.187381 0
    outer loop
      vertex 3.72904 0.957456 1.5
      vertex 3.81964 0.482533 14.25
      vertex 3.81964 0.482533 1.5
    endloop
  endfacet
  facet normal 0.951057 0.309016 0
    outer loop
      vertex 3.72904 0.957456 14.25
      vertex 3.57964 1.41728 1.5
      vertex 3.57964 1.41728 14.25
    endloop
  endfacet
  facet normal 0.951057 0.309016 0
    outer loop
      vertex 3.57964 1.41728 1.5
      vertex 3.72904 0.957456 14.25
      vertex 3.72904 0.957456 1.5
    endloop
  endfacet
  facet normal 0.770514 0.637424 0
    outer loop
      vertex 3.11471 2.26297 14.25
      vertex 2.80653 2.63551 1.5
      vertex 2.80653 2.63551 14.25
    endloop
  endfacet
  facet normal 0.770514 0.637424 0
    outer loop
      vertex 2.80653 2.63551 1.5
      vertex 3.11471 2.26297 14.25
      vertex 3.11471 2.26297 1.5
    endloop
  endfacet
  facet normal 0.24869 0.968583 -0
    outer loop
      vertex 1.18972 3.66157 1.5
      vertex 0.721417 3.78181 14.25
      vertex 1.18972 3.66157 14.25
    endloop
  endfacet
  facet normal 0.24869 0.968583 0
    outer loop
      vertex 0.721417 3.78181 14.25
      vertex 1.18972 3.66157 1.5
      vertex 0.721417 3.78181 1.5
    endloop
  endfacet
  facet normal 0.125334 0.992115 -0
    outer loop
      vertex 0.721417 3.78181 1.5
      vertex 0.241743 3.8424 14.25
      vertex 0.721417 3.78181 14.25
    endloop
  endfacet
  facet normal 0.125334 0.992115 0
    outer loop
      vertex 0.241743 3.8424 14.25
      vertex 0.721417 3.78181 1.5
      vertex 0.241743 3.8424 1.5
    endloop
  endfacet
  facet normal 0.481753 0.876307 -0
    outer loop
      vertex 2.06293 3.25066 1.5
      vertex 1.63925 3.48358 14.25
      vertex 2.06293 3.25066 14.25
    endloop
  endfacet
  facet normal 0.481753 0.876307 0
    outer loop
      vertex 1.63925 3.48358 14.25
      vertex 2.06293 3.25066 1.5
      vertex 1.63925 3.48358 1.5
    endloop
  endfacet
  facet normal -0.998027 0.0627904 0
    outer loop
      vertex -3.85 0 1.5
      vertex -3.81964 0.482533 14.25
      vertex -3.81964 0.482533 1.5
    endloop
  endfacet
  facet normal -0.998027 0.0627904 0
    outer loop
      vertex -3.81964 0.482533 14.25
      vertex -3.85 0 1.5
      vertex -3.85 0 14.25
    endloop
  endfacet
  facet normal -0.951057 0.309016 0
    outer loop
      vertex -3.72904 0.957456 1.5
      vertex -3.57964 1.41728 14.25
      vertex -3.57964 1.41728 1.5
    endloop
  endfacet
  facet normal -0.951057 0.309016 0
    outer loop
      vertex -3.57964 1.41728 14.25
      vertex -3.72904 0.957456 1.5
      vertex -3.72904 0.957456 14.25
    endloop
  endfacet
  facet normal -0.844327 0.535828 0
    outer loop
      vertex -3.37378 1.85475 1.5
      vertex -3.11471 2.26297 14.25
      vertex -3.11471 2.26297 1.5
    endloop
  endfacet
  facet normal -0.844327 0.535828 0
    outer loop
      vertex -3.11471 2.26297 14.25
      vertex -3.37378 1.85475 1.5
      vertex -3.37378 1.85475 14.25
    endloop
  endfacet
  facet normal -0.125334 0.992115 0
    outer loop
      vertex -0.241743 3.8424 1.5
      vertex -0.721417 3.78181 14.25
      vertex -0.241743 3.8424 14.25
    endloop
  endfacet
  facet normal -0.125334 0.992115 0
    outer loop
      vertex -0.721417 3.78181 14.25
      vertex -0.241743 3.8424 1.5
      vertex -0.721417 3.78181 1.5
    endloop
  endfacet
  facet normal -0.587786 0.809017 0
    outer loop
      vertex -2.06293 3.25066 1.5
      vertex -2.45408 2.96648 14.25
      vertex -2.06293 3.25066 14.25
    endloop
  endfacet
  facet normal -0.587786 0.809017 0
    outer loop
      vertex -2.45408 2.96648 14.25
      vertex -2.06293 3.25066 1.5
      vertex -2.45408 2.96648 1.5
    endloop
  endfacet
  facet normal -0.684547 0.728969 0
    outer loop
      vertex -2.45408 2.96648 1.5
      vertex -2.80653 2.63551 14.25
      vertex -2.45408 2.96648 14.25
    endloop
  endfacet
  facet normal -0.684547 0.728969 0
    outer loop
      vertex -2.80653 2.63551 14.25
      vertex -2.45408 2.96648 1.5
      vertex -2.80653 2.63551 1.5
    endloop
  endfacet
  facet normal 0.998027 0.0627904 0
    outer loop
      vertex 3.85 0 14.25
      vertex 3.81964 0.482533 1.5
      vertex 3.81964 0.482533 14.25
    endloop
  endfacet
  facet normal 0.998027 0.0627904 0
    outer loop
      vertex 3.81964 0.482533 1.5
      vertex 3.85 0 14.25
      vertex 3.85 0 1.5
    endloop
  endfacet
  facet normal 0.951057 -0.309016 0
    outer loop
      vertex 3.57964 -1.41728 14.25
      vertex 3.72904 -0.957456 1.5
      vertex 3.72904 -0.957456 14.25
    endloop
  endfacet
  facet normal 0.951057 -0.309016 0
    outer loop
      vertex 3.72904 -0.957456 1.5
      vertex 3.57964 -1.41728 14.25
      vertex 3.57964 -1.41728 1.5
    endloop
  endfacet
  facet normal -0.844327 -0.535828 0
    outer loop
      vertex -3.11471 -2.26297 1.5
      vertex -3.37378 -1.85475 14.25
      vertex -3.37378 -1.85475 1.5
    endloop
  endfacet
  facet normal -0.844327 -0.535828 0
    outer loop
      vertex -3.37378 -1.85475 14.25
      vertex -3.11471 -2.26297 1.5
      vertex -3.11471 -2.26297 14.25
    endloop
  endfacet
  facet normal 0.770514 -0.637424 0
    outer loop
      vertex 2.80653 -2.63551 14.25
      vertex 3.11471 -2.26297 1.5
      vertex 3.11471 -2.26297 14.25
    endloop
  endfacet
  facet normal 0.770514 -0.637424 0
    outer loop
      vertex 3.11471 -2.26297 1.5
      vertex 2.80653 -2.63551 14.25
      vertex 2.80653 -2.63551 1.5
    endloop
  endfacet
  facet normal 0.125334 -0.992115 0
    outer loop
      vertex 0.241743 -3.8424 1.5
      vertex 0.721417 -3.78181 14.25
      vertex 0.241743 -3.8424 14.25
    endloop
  endfacet
  facet normal 0.125334 -0.992115 0
    outer loop
      vertex 0.721417 -3.78181 14.25
      vertex 0.241743 -3.8424 1.5
      vertex 0.721417 -3.78181 1.5
    endloop
  endfacet
  facet normal 0.587786 -0.809017 0
    outer loop
      vertex 2.06293 -3.25066 1.5
      vertex 2.45408 -2.96648 14.25
      vertex 2.06293 -3.25066 14.25
    endloop
  endfacet
  facet normal 0.587786 -0.809017 0
    outer loop
      vertex 2.45408 -2.96648 14.25
      vertex 2.06293 -3.25066 1.5
      vertex 2.45408 -2.96648 1.5
    endloop
  endfacet
  facet normal 0 0 1
    outer loop
      vertex 3.81964 0.482533 14.25
      vertex 3.81964 -0.482533 14.25
      vertex 3.85 0 14.25
    endloop
  endfacet
  facet normal 0 0 1
    outer loop
      vertex 3.72904 0.957456 14.25
      vertex 3.81964 -0.482533 14.25
      vertex 3.81964 0.482533 14.25
    endloop
  endfacet
  facet normal 0 0 1
    outer loop
      vertex 3.72904 0.957456 14.25
      vertex 3.72904 -0.957456 14.25
      vertex 3.81964 -0.482533 14.25
    endloop
  endfacet
  facet normal 0 0 1
    outer loop
      vertex 3.57964 1.41728 14.25
      vertex 3.72904 -0.957456 14.25
      vertex 3.72904 0.957456 14.25
    endloop
  endfacet
  facet normal 0 0 1
    outer loop
      vertex 3.57964 1.41728 14.25
      vertex 3.57964 -1.41728 14.25
      vertex 3.72904 -0.957456 14.25
    endloop
  endfacet
  facet normal 0 0 1
    outer loop
      vertex 3.37378 1.85475 14.25
      vertex 3.57964 -1.41728 14.25
      vertex 3.57964 1.41728 14.25
    endloop
  endfacet
  facet normal 0 0 1
    outer loop
      vertex 3.37378 1.85475 14.25
      vertex 3.37378 -1.85475 14.25
      vertex 3.57964 -1.41728 14.25
    endloop
  endfacet
  facet normal 0 0 1
    outer loop
      vertex 3.11471 2.26297 14.25
      vertex 3.37378 -1.85475 14.25
      vertex 3.37378 1.85475 14.25
    endloop
  endfacet
  facet normal 0 0 1
    outer loop
      vertex 3.11471 2.26297 14.25
      vertex 3.11471 -2.26297 14.25
      vertex 3.37378 -1.85475 14.25
    endloop
  endfacet
  facet normal 0 0 1
    outer loop
      vertex 2.80653 2.63551 14.25
      vertex 3.11471 -2.26297 14.25
      vertex 3.11471 2.26297 14.25
    endloop
  endfacet
  facet normal 0 0 1
    outer loop
      vertex 2.80653 2.63551 14.25
      vertex 2.80653 -2.63551 14.25
      vertex 3.11471 -2.26297 14.25
    endloop
  endfacet
  facet normal 0 0 1
    outer loop
      vertex 2.45408 2.96648 14.25
      vertex 2.80653 -2.63551 14.25
      vertex 2.80653 2.63551 14.25
    endloop
  endfacet
  facet normal 0 0 1
    outer loop
      vertex 2.45408 2.96648 14.25
      vertex 2.45408 -2.96648 14.25
      vertex 2.80653 -2.63551 14.25
    endloop
  endfacet
  facet normal 0 0 1
    outer loop
      vertex 2.06293 3.25066 14.25
      vertex 2.45408 -2.96648 14.25
      vertex 2.45408 2.96648 14.25
    endloop
  endfacet
  facet normal 0 0 1
    outer loop
      vertex 2.06293 3.25066 14.25
      vertex 2.06293 -3.25066 14.25
      vertex 2.45408 -2.96648 14.25
    endloop
  endfacet
  facet normal 0 0 1
    outer loop
      vertex 1.63925 3.48358 14.25
      vertex 2.06293 -3.25066 14.25
      vertex 2.06293 3.25066 14.25
    endloop
  endfacet
  facet normal 0 0 1
    outer loop
      vertex 1.63925 3.48358 14.25
      vertex 1.63925 -3.48358 14.25
      vertex 2.06293 -3.25066 14.25
    endloop
  endfacet
  facet normal 0 0 1
    outer loop
      vertex 1.18972 3.66157 14.25
      vertex 1.63925 -3.48358 14.25
      vertex 1.63925 3.48358 14.25
    endloop
  endfacet
  facet normal 0 0 1
    outer loop
      vertex 1.18972 3.66157 14.25
      vertex 1.18972 -3.66157 14.25
      vertex 1.63925 -3.48358 14.25
    endloop
  endfacet
  facet normal 0 0 1
    outer loop
      vertex 0.721417 3.78181 14.25
      vertex 1.18972 -3.66157 14.25
      vertex 1.18972 3.66157 14.25
    endloop
  endfacet
  facet normal 0 0 1
    outer loop
      vertex 0.721417 3.78181 14.25
      vertex 0.721417 -3.78181 14.25
      vertex 1.18972 -3.66157 14.25
    endloop
  endfacet
  facet normal 0 0 1
    outer loop
      vertex 0.241743 3.8424 14.25
      vertex 0.721417 -3.78181 14.25
      vertex 0.721417 3.78181 14.25
    endloop
  endfacet
  facet normal 0 0 1
    outer loop
      vertex 0.241743 3.8424 14.25
      vertex 0.241743 -3.8424 14.25
      vertex 0.721417 -3.78181 14.25
    endloop
  endfacet
  facet normal -0 0 1
    outer loop
      vertex -0.241743 3.8424 14.25
      vertex 0.241743 -3.8424 14.25
      vertex 0.241743 3.8424 14.25
    endloop
  endfacet
  facet normal 0 0 1
    outer loop
      vertex -0.241743 3.8424 14.25
      vertex -0.241743 -3.8424 14.25
      vertex 0.241743 -3.8424 14.25
    endloop
  endfacet
  facet normal -0 0 1
    outer loop
      vertex -0.721417 3.78181 14.25
      vertex -0.241743 -3.8424 14.25
      vertex -0.241743 3.8424 14.25
    endloop
  endfacet
  facet normal 0 0 1
    outer loop
      vertex -0.721417 3.78181 14.25
      vertex -0.721417 -3.78181 14.25
      vertex -0.241743 -3.8424 14.25
    endloop
  endfacet
  facet normal -0 0 1
    outer loop
      vertex -1.18972 3.66157 14.25
      vertex -0.721417 -3.78181 14.25
      vertex -0.721417 3.78181 14.25
    endloop
  endfacet
  facet normal 0 0 1
    outer loop
      vertex -1.18972 3.66157 14.25
      vertex -1.18972 -3.66157 14.25
      vertex -0.721417 -3.78181 14.25
    endloop
  endfacet
  facet normal -0 0 1
    outer loop
      vertex -1.63925 3.48358 14.25
      vertex -1.18972 -3.66157 14.25
      vertex -1.18972 3.66157 14.25
    endloop
  endfacet
  facet normal 0 0 1
    outer loop
      vertex -1.63925 3.48358 14.25
      vertex -1.63925 -3.48358 14.25
      vertex -1.18972 -3.66157 14.25
    endloop
  endfacet
  facet normal -0 0 1
    outer loop
      vertex -2.06293 3.25066 14.25
      vertex -1.63925 -3.48358 14.25
      vertex -1.63925 3.48358 14.25
    endloop
  endfacet
  facet normal 0 0 1
    outer loop
      vertex -2.06293 3.25066 14.25
      vertex -2.06293 -3.25066 14.25
      vertex -1.63925 -3.48358 14.25
    endloop
  endfacet
  facet normal -0 0 1
    outer loop
      vertex -2.45408 2.96648 14.25
      vertex -2.06293 -3.25066 14.25
      vertex -2.06293 3.25066 14.25
    endloop
  endfacet
  facet normal 0 0 1
    outer loop
      vertex -2.45408 2.96648 14.25
      vertex -2.45408 -2.96648 14.25
      vertex -2.06293 -3.25066 14.25
    endloop
  endfacet
  facet normal -0 0 1
    outer loop
      vertex -2.80653 2.63551 14.25
      vertex -2.45408 -2.96648 14.25
      vertex -2.45408 2.96648 14.25
    endloop
  endfacet
  facet normal 0 0 1
    outer loop
      vertex -2.80653 2.63551 14.25
      vertex -2.80653 -2.63551 14.25
      vertex -2.45408 -2.96648 14.25
    endloop
  endfacet
  facet normal -0 0 1
    outer loop
      vertex -3.11471 2.26297 14.25
      vertex -2.80653 -2.63551 14.25
      vertex -2.80653 2.63551 14.25
    endloop
  endfacet
  facet normal 0 0 1
    outer loop
      vertex -3.11471 2.26297 14.25
      vertex -3.11471 -2.26297 14.25
      vertex -2.80653 -2.63551 14.25
    endloop
  endfacet
  facet normal -0 0 1
    outer loop
      vertex -3.37378 1.85475 14.25
      vertex -3.11471 -2.26297 14.25
      vertex -3.11471 2.26297 14.25
    endloop
  endfacet
  facet normal 0 0 1
    outer loop
      vertex -3.37378 1.85475 14.25
      vertex -3.37378 -1.85475 14.25
      vertex -3.11471 -2.26297 14.25
    endloop
  endfacet
  facet normal -0 0 1
    outer loop
      vertex -3.57964 1.41728 14.25
      vertex -3.37378 -1.85475 14.25
      vertex -3.37378 1.85475 14.25
    endloop
  endfacet
  facet normal 0 0 1
    outer loop
      vertex -3.57964 1.41728 14.25
      vertex -3.57964 -1.41728 14.25
      vertex -3.37378 -1.85475 14.25
    endloop
  endfacet
  facet normal -0 0 1
    outer loop
      vertex -3.72904 0.957456 14.25
      vertex -3.57964 -1.41728 14.25
      vertex -3.57964 1.41728 14.25
    endloop
  endfacet
  facet normal 0 0 1
    outer loop
      vertex -3.72904 0.957456 14.25
      vertex -3.72904 -0.957456 14.25
      vertex -3.57964 -1.41728 14.25
    endloop
  endfacet
  facet normal -0 0 1
    outer loop
      vertex -3.81964 0.482533 14.25
      vertex -3.72904 -0.957456 14.25
      vertex -3.72904 0.957456 14.25
    endloop
  endfacet
  facet normal 0 0 1
    outer loop
      vertex -3.81964 0.482533 14.25
      vertex -3.81964 -0.482533 14.25
      vertex -3.72904 -0.957456 14.25
    endloop
  endfacet
  facet normal 0 -0 1
    outer loop
      vertex -3.81964 -0.482533 14.25
      vertex -3.81964 0.482533 14.25
      vertex -3.85 0 14.25
    endloop
  endfacet
  facet normal -0.982287 0.187381 0
    outer loop
      vertex -3.81964 0.482533 1.5
      vertex -3.72904 0.957456 14.25
      vertex -3.72904 0.957456 1.5
    endloop
  endfacet
  facet normal -0.982287 0.187381 0
    outer loop
      vertex -3.72904 0.957456 14.25
      vertex -3.81964 0.482533 1.5
      vertex -3.81964 0.482533 14.25
    endloop
  endfacet
  facet normal 0.982287 -0.187381 0
    outer loop
      vertex 3.72904 -0.957456 14.25
      vertex 3.81964 -0.482533 1.5
      vertex 3.81964 -0.482533 14.25
    endloop
  endfacet
  facet normal 0.982287 -0.187381 0
    outer loop
      vertex 3.81964 -0.482533 1.5
      vertex 3.72904 -0.957456 14.25
      vertex 3.72904 -0.957456 1.5
    endloop
  endfacet
  facet normal -0.125334 -0.992115 0
    outer loop
      vertex -0.721417 -3.78181 1.5
      vertex -0.241743 -3.8424 14.25
      vertex -0.721417 -3.78181 14.25
    endloop
  endfacet
  facet normal -0.125334 -0.992115 -0
    outer loop
      vertex -0.241743 -3.8424 14.25
      vertex -0.721417 -3.78181 1.5
      vertex -0.241743 -3.8424 1.5
    endloop
  endfacet
  facet normal -0.998027 -0.0627904 0
    outer loop
      vertex -3.81964 -0.482533 1.5
      vertex -3.85 0 14.25
      vertex -3.85 0 1.5
    endloop
  endfacet
  facet normal -0.998027 -0.0627904 0
    outer loop
      vertex -3.85 0 14.25
      vertex -3.81964 -0.482533 1.5
      vertex -3.81964 -0.482533 14.25
    endloop
  endfacet
  facet normal -0.951057 -0.309016 0
    outer loop
      vertex -3.57964 -1.41728 1.5
      vertex -3.72904 -0.957456 14.25
      vertex -3.72904 -0.957456 1.5
    endloop
  endfacet
  facet normal -0.951057 -0.309016 0
    outer loop
      vertex -3.72904 -0.957456 14.25
      vertex -3.57964 -1.41728 1.5
      vertex -3.57964 -1.41728 14.25
    endloop
  endfacet
  facet normal -0.770514 -0.637424 0
    outer loop
      vertex -2.80653 -2.63551 1.5
      vertex -3.11471 -2.26297 14.25
      vertex -3.11471 -2.26297 1.5
    endloop
  endfacet
  facet normal -0.770514 -0.637424 0
    outer loop
      vertex -3.11471 -2.26297 14.25
      vertex -2.80653 -2.63551 1.5
      vertex -2.80653 -2.63551 14.25
    endloop
  endfacet
  facet normal 0.844327 -0.535828 0
    outer loop
      vertex 3.11471 -2.26297 14.25
      vertex 3.37378 -1.85475 1.5
      vertex 3.37378 -1.85475 14.25
    endloop
  endfacet
  facet normal 0.844327 -0.535828 0
    outer loop
      vertex 3.37378 -1.85475 1.5
      vertex 3.11471 -2.26297 14.25
      vertex 3.11471 -2.26297 1.5
    endloop
  endfacet
  facet normal 0.368125 -0.929776 0
    outer loop
      vertex 1.18972 -3.66157 1.5
      vertex 1.63925 -3.48358 14.25
      vertex 1.18972 -3.66157 14.25
    endloop
  endfacet
  facet normal 0.368125 -0.929776 0
    outer loop
      vertex 1.63925 -3.48358 14.25
      vertex 1.18972 -3.66157 1.5
      vertex 1.63925 -3.48358 1.5
    endloop
  endfacet
  facet normal 0.24869 -0.968583 0
    outer loop
      vertex 0.721417 -3.78181 1.5
      vertex 1.18972 -3.66157 14.25
      vertex 0.721417 -3.78181 14.25
    endloop
  endfacet
  facet normal 0.24869 -0.968583 0
    outer loop
      vertex 1.18972 -3.66157 14.25
      vertex 0.721417 -3.78181 1.5
      vertex 1.18972 -3.66157 1.5
    endloop
  endfacet
  facet normal 0 -1 0
    outer loop
      vertex -0.241743 -3.8424 1.5
      vertex 0.241743 -3.8424 14.25
      vertex -0.241743 -3.8424 14.25
    endloop
  endfacet
  facet normal 0 -1 -0
    outer loop
      vertex 0.241743 -3.8424 14.25
      vertex -0.241743 -3.8424 1.5
      vertex 0.241743 -3.8424 1.5
    endloop
  endfacet
  facet normal -0.481753 -0.876307 0
    outer loop
      vertex -2.06293 -3.25066 1.5
      vertex -1.63925 -3.48358 14.25
      vertex -2.06293 -3.25066 14.25
    endloop
  endfacet
  facet normal -0.481753 -0.876307 -0
    outer loop
      vertex -1.63925 -3.48358 14.25
      vertex -2.06293 -3.25066 1.5
      vertex -1.63925 -3.48358 1.5
    endloop
  endfacet
  facet normal -0.982287 -0.187381 0
    outer loop
      vertex -3.72904 -0.957456 1.5
      vertex -3.81964 -0.482533 14.25
      vertex -3.81964 -0.482533 1.5
    endloop
  endfacet
  facet normal -0.982287 -0.187381 0
    outer loop
      vertex -3.81964 -0.482533 14.25
      vertex -3.72904 -0.957456 1.5
      vertex -3.72904 -0.957456 14.25
    endloop
  endfacet
  facet normal 0.684547 -0.728969 0
    outer loop
      vertex 2.45408 -2.96648 1.5
      vertex 2.80653 -2.63551 14.25
      vertex 2.45408 -2.96648 14.25
    endloop
  endfacet
  facet normal 0.684547 -0.728969 0
    outer loop
      vertex 2.80653 -2.63551 14.25
      vertex 2.45408 -2.96648 1.5
      vertex 2.80653 -2.63551 1.5
    endloop
  endfacet
  facet normal -0.587786 -0.809017 0
    outer loop
      vertex -2.45408 -2.96648 1.5
      vertex -2.06293 -3.25066 14.25
      vertex -2.45408 -2.96648 14.25
    endloop
  endfacet
  facet normal -0.587786 -0.809017 -0
    outer loop
      vertex -2.06293 -3.25066 14.25
      vertex -2.45408 -2.96648 1.5
      vertex -2.06293 -3.25066 1.5
    endloop
  endfacet
  facet normal -0.24869 -0.968583 0
    outer loop
      vertex -1.18972 -3.66157 1.5
      vertex -0.721417 -3.78181 14.25
      vertex -1.18972 -3.66157 14.25
    endloop
  endfacet
  facet normal -0.24869 -0.968583 -0
    outer loop
      vertex -0.721417 -3.78181 14.25
      vertex -1.18972 -3.66157 1.5
      vertex -0.721417 -3.78181 1.5
    endloop
  endfacet
  facet normal -0.368125 -0.929776 0
    outer loop
      vertex -1.63925 -3.48358 1.5
      vertex -1.18972 -3.66157 14.25
      vertex -1.63925 -3.48358 14.25
    endloop
  endfacet
  facet normal -0.368125 -0.929776 -0
    outer loop
      vertex -1.18972 -3.66157 14.25
      vertex -1.63925 -3.48358 1.5
      vertex -1.18972 -3.66157 1.5
    endloop
  endfacet
endsolid OpenSCAD_Model
