solid OpenSCAD_Model
  facet normal -1 0 0
    outer loop
      vertex 0 0 0
      vertex 0 20 20
      vertex 0 20 0
    endloop
  endfacet
  facet normal -1 -0 0
    outer loop
      vertex 0 20 20
      vertex 0 0 0
      vertex 0 0 20
    endloop
  endfacet
  facet normal 0 0 1
    outer loop
      vertex 4 20 20
      vertex 0 20 20
      vertex 4 4 20
    endloop
  endfacet
  facet normal 0 0 1
    outer loop
      vertex 25 4 20
      vertex 13.5 0 20
      vertex 25 0 20
    endloop
  endfacet
  facet normal 0 0 1
    outer loop
      vertex 25 4 20
      vertex 12.5 1 20
      vertex 13.5 0 20
    endloop
  endfacet
  facet normal -0 0 1
    outer loop
      vertex 4 4 20
      vertex 12.5 1 20
      vertex 25 4 20
    endloop
  endfacet
  facet normal 0 0 1
    outer loop
      vertex 4 4 20
      vertex 11.5 0 20
      vertex 12.5 1 20
    endloop
  endfacet
  facet normal 0 0 1
    outer loop
      vertex 4 4 20
      vertex 0 0 20
      vertex 11.5 0 20
    endloop
  endfacet
  facet normal 0 0 1
    outer loop
      vertex 0 0 20
      vertex 4 4 20
      vertex 0 20 20
    endloop
  endfacet
  facet normal 1 -0 0
    outer loop
      vertex 4 4 20
      vertex 4 20 0
      vertex 4 20 20
    endloop
  endfacet
  facet normal 1 0 0
    outer loop
      vertex 4 20 0
      vertex 4 4 20
      vertex 4 4 0
    endloop
  endfacet
  facet normal 0 1 -0
    outer loop
      vertex 4 20 0
      vertex 0 20 20
      vertex 4 20 20
    endloop
  endfacet
  facet normal 0 1 0
    outer loop
      vertex 0 20 20
      vertex 4 20 0
      vertex 0 20 0
    endloop
  endfacet
  facet normal 0 0 -1
    outer loop
      vertex 13.5 0 0
      vertex 25 4 0
      vertex 25 0 0
    endloop
  endfacet
  facet normal 0 0 -1
    outer loop
      vertex 12.5 1 0
      vertex 25 4 0
      vertex 13.5 0 0
    endloop
  endfacet
  facet normal 0 0 -1
    outer loop
      vertex 12.5 1 0
      vertex 4 4 0
      vertex 25 4 0
    endloop
  endfacet
  facet normal 0 0 -1
    outer loop
      vertex 11.5 0 0
      vertex 4 4 0
      vertex 12.5 1 0
    endloop
  endfacet
  facet normal 0 0 -1
    outer loop
      vertex 0 0 0
      vertex 4 4 0
      vertex 11.5 0 0
    endloop
  endfacet
  facet normal 0 0 -1
    outer loop
      vertex 0 20 0
      vertex 4 4 0
      vertex 0 0 0
    endloop
  endfacet
  facet normal 0 0 -1
    outer loop
      vertex 4 4 0
      vertex 0 20 0
      vertex 4 20 0
    endloop
  endfacet
  facet normal 0 -1 0
    outer loop
      vertex 0 0 0
      vertex 11.5 0 20
      vertex 0 0 20
    endloop
  endfacet
  facet normal 0 -1 -0
    outer loop
      vertex 11.5 0 20
      vertex 0 0 0
      vertex 11.5 0 0
    endloop
  endfacet
  facet normal 0 -1 0
    outer loop
      vertex 13.5 0 0
      vertex 25 0 20
      vertex 13.5 0 20
    endloop
  endfacet
  facet normal 0 -1 -0
    outer loop
      vertex 25 0 20
      vertex 13.5 0 0
      vertex 25 0 0
    endloop
  endfacet
  facet normal 1 -0 0
    outer loop
      vertex 25 0 20
      vertex 25 4 0
      vertex 25 4 20
    endloop
  endfacet
  facet normal 1 0 0
    outer loop
      vertex 25 4 0
      vertex 25 0 20
      vertex 25 0 0
    endloop
  endfacet
  facet normal 0 1 -0
    outer loop
      vertex 25 4 0
      vertex 4 4 20
      vertex 25 4 20
    endloop
  endfacet
  facet normal 0 1 0
    outer loop
      vertex 4 4 20
      vertex 25 4 0
      vertex 4 4 0
    endloop
  endfacet
  facet normal -0.707107 -0.707107 0
    outer loop
      vertex 13.5 0 0
      vertex 12.5 1 20
      vertex 12.5 1 0
    endloop
  endfacet
  facet normal -0.707107 -0.707107 0
    outer loop
      vertex 12.5 1 20
      vertex 13.5 0 0
      vertex 13.5 0 20
    endloop
  endfacet
  facet normal 0.707106 -0.707107 0
    outer loop
      vertex 11.5 0 0
      vertex 12.5 1 20
      vertex 11.5 0 20
    endloop
  endfacet
  facet normal 0.707106 -0.707107 0
    outer loop
      vertex 12.5 1 20
      vertex 11.5 0 0
      vertex 12.5 1 0
    endloop
  endfacet
endsolid OpenSCAD_Model
